<mxfile host="Electron" modified="2023-12-07T10:27:46.241Z" agent="Mozilla/5.0 (Windows NT 10.0; WOW64) AppleWebKit/537.36 (KHTML, like Gecko) draw.io/21.5.0 Chrome/112.0.5615.204 Electron/24.5.1 Safari/537.36" etag="VuiQ3AX25v9OlnSungoJ" version="21.5.0" type="device" pages="2">
  <diagram name="Modified" id="6reqD3wg1qw731g1XTyx">
    <mxGraphModel dx="1434" dy="862" grid="1" gridSize="10" guides="1" tooltips="1" connect="1" arrows="1" fold="1" page="1" pageScale="1" pageWidth="400" pageHeight="370" background="#FF3333" math="0" shadow="0">
      <root>
        <mxCell id="X2pXI5gSGEw10GLeWByq-0" />
        <mxCell id="X2pXI5gSGEw10GLeWByq-1" parent="X2pXI5gSGEw10GLeWByq-0" />
        <mxCell id="m2RUkCJ0LsggrkBOxo6s-9" value="" style="rounded=1;whiteSpace=wrap;html=1;fontSize=16;fillColor=none;strokeColor=#ffffff;strokeWidth=28;arcSize=2;" parent="X2pXI5gSGEw10GLeWByq-1" vertex="1">
          <mxGeometry x="-140" y="240" width="1620" height="1230" as="geometry" />
        </mxCell>
        <mxCell id="X2pXI5gSGEw10GLeWByq-2" value="&lt;p style=&quot;line-height: 0%;&quot;&gt;&lt;font style=&quot;font-size: 18px;&quot;&gt;Controller&lt;/font&gt;&lt;br&gt;&lt;/p&gt;" style="swimlane;whiteSpace=wrap;html=1;swimlaneFillColor=#99FFFF;rounded=1;startSize=30;fillColor=#99FFFF;" parent="X2pXI5gSGEw10GLeWByq-1" vertex="1">
          <mxGeometry x="-100" y="764" width="700" height="240" as="geometry" />
        </mxCell>
        <mxCell id="X2pXI5gSGEw10GLeWByq-3" value="&lt;p style=&quot;margin:0px;margin-top:4px;text-align:center;&quot;&gt;&lt;i&gt;&lt;font color=&quot;#000000&quot;&gt;&amp;lt;&amp;lt;controller&amp;gt;&amp;gt;&lt;/font&gt;&lt;/i&gt;&lt;/p&gt;&lt;p style=&quot;margin:0px;margin-top:4px;text-align:center;&quot;&gt;&lt;i&gt;&lt;b&gt;&lt;font color=&quot;#000000&quot;&gt;application:CalcController&lt;/font&gt;&lt;/b&gt;&lt;/i&gt;&lt;/p&gt;&lt;hr&gt;&lt;p style=&quot;margin:0px;margin-left:4px;&quot;&gt;&lt;font color=&quot;#000000&quot;&gt;- model: Calculator&lt;br&gt;- view : ViewInterface&lt;/font&gt;&lt;/p&gt;&lt;hr size=&quot;1&quot;&gt;&lt;p style=&quot;margin:0px;margin-left:4px;&quot;&gt;&lt;font color=&quot;#000000&quot;&gt;+ handleCalculation(): void&lt;br&gt;+ handleTypeChange(String): void&lt;/font&gt;&lt;/p&gt;" style="verticalAlign=top;align=left;overflow=fill;fontSize=12;fontFamily=Helvetica;html=1;whiteSpace=wrap;fillColor=default;fontColor=#ffffff;strokeColor=default;" parent="X2pXI5gSGEw10GLeWByq-2" vertex="1">
          <mxGeometry x="252" y="65.5" width="200" height="134.5" as="geometry" />
        </mxCell>
        <mxCell id="X2pXI5gSGEw10GLeWByq-5" value="" style="rounded=0;orthogonalLoop=1;jettySize=auto;html=1;entryX=1;entryY=0.25;entryDx=0;entryDy=0;exitX=0;exitY=0.5;exitDx=0;exitDy=0;exitPerimeter=0;edgeStyle=orthogonalEdgeStyle;" parent="X2pXI5gSGEw10GLeWByq-2" source="X2pXI5gSGEw10GLeWByq-4" target="X2pXI5gSGEw10GLeWByq-3" edge="1">
          <mxGeometry relative="1" as="geometry">
            <Array as="points">
              <mxPoint x="486" y="102" />
            </Array>
          </mxGeometry>
        </mxCell>
        <mxCell id="X2pXI5gSGEw10GLeWByq-6" value="&lt;span style=&quot;font-size: 10px;&quot;&gt;Is notified when a calculation is required&lt;/span&gt;" style="verticalLabelPosition=middle;verticalAlign=middle;html=1;shape=mxgraph.basic.corner_round_rect;dx=6;whiteSpace=wrap;movableLabel=1;labelPosition=center;align=left;fillColor=#fff2cc;strokeColor=#d6b656;" parent="X2pXI5gSGEw10GLeWByq-2" vertex="1">
          <mxGeometry x="68" y="50.5" width="150" height="70" as="geometry">
            <mxPoint x="6" y="1" as="offset" />
          </mxGeometry>
        </mxCell>
        <mxCell id="X2pXI5gSGEw10GLeWByq-7" style="rounded=0;orthogonalLoop=1;jettySize=auto;html=1;entryX=-0.009;entryY=0.687;entryDx=0;entryDy=0;entryPerimeter=0;edgeStyle=orthogonalEdgeStyle;" parent="X2pXI5gSGEw10GLeWByq-2" edge="1">
          <mxGeometry relative="1" as="geometry">
            <Array as="points">
              <mxPoint x="145" y="136" />
              <mxPoint x="232" y="136" />
              <mxPoint x="232" y="165" />
              <mxPoint x="252" y="165" />
            </Array>
            <mxPoint x="145.01694915254234" y="120.5" as="sourcePoint" />
            <mxPoint x="252.20000000000005" y="164.77150000000006" as="targetPoint" />
          </mxGeometry>
        </mxCell>
        <mxCell id="X2pXI5gSGEw10GLeWByq-8" value="&lt;span style=&quot;font-size: 10px;&quot;&gt;Is notified when the expression type is changed&lt;/span&gt;" style="verticalLabelPosition=middle;verticalAlign=middle;html=1;shape=mxgraph.basic.corner_round_rect;dx=6;whiteSpace=wrap;movableLabel=1;labelPosition=center;align=left;fillColor=#fff2cc;strokeColor=#d6b656;" parent="X2pXI5gSGEw10GLeWByq-2" vertex="1">
          <mxGeometry x="70" y="149" width="148" height="70" as="geometry">
            <mxPoint x="6" y="1" as="offset" />
          </mxGeometry>
        </mxCell>
        <mxCell id="X2pXI5gSGEw10GLeWByq-9" value="" style="rounded=0;orthogonalLoop=1;jettySize=auto;html=1;edgeStyle=orthogonalEdgeStyle;entryX=-0.003;entryY=0.846;entryDx=0;entryDy=0;entryPerimeter=0;" parent="X2pXI5gSGEw10GLeWByq-2" source="X2pXI5gSGEw10GLeWByq-8" target="X2pXI5gSGEw10GLeWByq-3" edge="1">
          <mxGeometry relative="1" as="geometry">
            <mxPoint x="62" y="140.5" as="sourcePoint" />
            <mxPoint x="240" y="186" as="targetPoint" />
            <Array as="points">
              <mxPoint x="251" y="179" />
            </Array>
          </mxGeometry>
        </mxCell>
        <mxCell id="X2pXI5gSGEw10GLeWByq-4" value="&lt;font style=&quot;font-size: 10px;&quot;&gt;1. Take View and Model&lt;br&gt;&lt;br&gt;&lt;/font&gt;&lt;font style=&quot;font-size: 10px;&quot;&gt;2. Adds itself as an Observer to the View so that (asynchronous) changes can be observed&lt;/font&gt;" style="verticalLabelPosition=middle;verticalAlign=middle;html=1;shape=mxgraph.basic.corner_round_rect;dx=6;whiteSpace=wrap;movableLabel=1;labelPosition=center;align=left;fillColor=#fff2cc;strokeColor=#d6b656;" parent="X2pXI5gSGEw10GLeWByq-2" vertex="1">
          <mxGeometry x="485" y="41.5" width="192" height="112" as="geometry">
            <mxPoint x="5" y="3" as="offset" />
          </mxGeometry>
        </mxCell>
        <mxCell id="X2pXI5gSGEw10GLeWByq-10" value="&lt;p style=&quot;line-height: 150%;&quot;&gt;&lt;font style=&quot;font-size: 18px;&quot;&gt;View Assembly&lt;/font&gt;&lt;/p&gt;" style="swimlane;whiteSpace=wrap;html=1;rounded=1;swimlaneFillColor=#99FFFF;fillColor=#99FFFF;strokeColor=#000000;startSize=24;" parent="X2pXI5gSGEw10GLeWByq-1" vertex="1">
          <mxGeometry x="-100" y="290" width="700" height="444" as="geometry" />
        </mxCell>
        <mxCell id="X2pXI5gSGEw10GLeWByq-11" value="&lt;p style=&quot;margin:0px;margin-top:4px;text-align:center;&quot;&gt;&lt;i&gt;&amp;lt;&amp;lt;Interface&amp;gt;&amp;gt;&lt;/i&gt;&lt;br&gt;&lt;b style=&quot;border-color: var(--border-color);&quot;&gt;application.view:&lt;/b&gt;&lt;b&gt;ViewInterface&lt;/b&gt;&lt;/p&gt;&lt;hr size=&quot;1&quot;&gt;&lt;p style=&quot;margin:0px;margin-left:4px;&quot;&gt;+ getExpression(): String&lt;/p&gt;&lt;p style=&quot;margin:0px;margin-left:4px;&quot;&gt;+ setAnswer(String): void&lt;/p&gt;&lt;p style=&quot;margin:0px;margin-left:4px;&quot;&gt;+ addCalculateObserver(Runnable): void&lt;/p&gt;&lt;p style=&quot;margin:0px;margin-left:4px;&quot;&gt;+ addTypeObserver(Consumer&amp;lt;String&amp;gt;): void&lt;/p&gt;&lt;p style=&quot;margin:0px;margin-left:4px;&quot;&gt;+ setCalculatorNotification(String): void&lt;/p&gt;" style="verticalAlign=top;align=left;overflow=fill;fontSize=12;fontFamily=Helvetica;html=1;whiteSpace=wrap;" parent="X2pXI5gSGEw10GLeWByq-10" vertex="1">
          <mxGeometry x="215" y="35" width="270" height="125" as="geometry" />
        </mxCell>
        <mxCell id="X2pXI5gSGEw10GLeWByq-12" style="edgeStyle=orthogonalEdgeStyle;rounded=0;orthogonalLoop=1;jettySize=auto;html=1;endArrow=none;endFill=0;exitX=0.5;exitY=1;exitDx=0;exitDy=0;startArrow=block;startFill=0;" parent="X2pXI5gSGEw10GLeWByq-10" source="X2pXI5gSGEw10GLeWByq-11" target="X2pXI5gSGEw10GLeWByq-13" edge="1">
          <mxGeometry relative="1" as="geometry">
            <mxPoint x="450" y="-78" as="sourcePoint" />
            <Array as="points">
              <mxPoint x="350" y="187" />
              <mxPoint x="465" y="187" />
            </Array>
          </mxGeometry>
        </mxCell>
        <mxCell id="X2pXI5gSGEw10GLeWByq-13" value="&lt;p style=&quot;margin:0px;margin-top:4px;text-align:center;&quot;&gt;&lt;i&gt;&amp;lt;&amp;lt;view&amp;gt;&amp;gt;&lt;/i&gt;&lt;/p&gt;&lt;b style=&quot;border-color: var(--border-color);&quot;&gt;&lt;div style=&quot;text-align: center;&quot;&gt;&lt;b style=&quot;background-color: initial; border-color: var(--border-color);&quot;&gt;application.view&lt;i style=&quot;background-color: initial; font-weight: normal;&quot;&gt;&lt;b&gt;:&lt;/b&gt;&lt;/i&gt;&lt;/b&gt;&lt;b style=&quot;background-color: initial;&quot;&gt;&lt;i&gt;CalcView&lt;/i&gt;&lt;/b&gt;&lt;/div&gt;&lt;/b&gt;&lt;hr&gt;&lt;p style=&quot;margin:0px;margin-left:4px;&quot;&gt;&lt;br&gt;&lt;/p&gt;" style="verticalAlign=top;align=left;overflow=fill;fontSize=12;fontFamily=Helvetica;html=1;whiteSpace=wrap;" parent="X2pXI5gSGEw10GLeWByq-10" vertex="1">
          <mxGeometry x="360" y="197" width="190" height="123" as="geometry" />
        </mxCell>
        <mxCell id="X2pXI5gSGEw10GLeWByq-14" style="edgeStyle=orthogonalEdgeStyle;rounded=0;orthogonalLoop=1;jettySize=auto;html=1;startArrow=none;startFill=0;endArrow=block;endFill=0;entryX=0.5;entryY=1;entryDx=0;entryDy=0;" parent="X2pXI5gSGEw10GLeWByq-10" source="X2pXI5gSGEw10GLeWByq-15" target="X2pXI5gSGEw10GLeWByq-11" edge="1">
          <mxGeometry relative="1" as="geometry">
            <mxPoint x="290" y="147" as="targetPoint" />
            <Array as="points">
              <mxPoint x="235" y="187" />
              <mxPoint x="350" y="187" />
            </Array>
          </mxGeometry>
        </mxCell>
        <mxCell id="X2pXI5gSGEw10GLeWByq-15" value="&lt;p style=&quot;margin:0px;margin-top:4px;text-align:center;&quot;&gt;&lt;i&gt;&amp;lt;&amp;lt;view&amp;gt;&amp;gt;&lt;/i&gt;&lt;/p&gt;&lt;b style=&quot;border-color: var(--border-color);&quot;&gt;&lt;div style=&quot;text-align: center;&quot;&gt;&lt;b style=&quot;background-color: initial; border-color: var(--border-color);&quot;&gt;application.view&lt;i style=&quot;background-color: initial; font-weight: normal;&quot;&gt;&lt;b&gt;:AsciiView&lt;/b&gt;&lt;/i&gt;&lt;/b&gt;&lt;/div&gt;&lt;/b&gt;&lt;hr&gt;&lt;p style=&quot;margin:0px;margin-left:4px;&quot;&gt;&lt;/p&gt;&lt;p style=&quot;margin:0px;margin-left:4px;&quot;&gt;- question: String&lt;/p&gt;&lt;p style=&quot;margin:0px;margin-left:4px;&quot;&gt;- typeNotification: String&lt;/p&gt;&lt;p style=&quot;margin:0px;margin-left:4px;&quot;&gt;- history: String&lt;/p&gt;&lt;hr&gt;&amp;nbsp;- menu(): void" style="verticalAlign=top;align=left;overflow=fill;fontSize=12;fontFamily=Helvetica;html=1;whiteSpace=wrap;" parent="X2pXI5gSGEw10GLeWByq-10" vertex="1">
          <mxGeometry x="150" y="197" width="190" height="123" as="geometry" />
        </mxCell>
        <mxCell id="X2pXI5gSGEw10GLeWByq-16" style="edgeStyle=orthogonalEdgeStyle;rounded=0;orthogonalLoop=1;jettySize=auto;html=1;entryX=0;entryY=0.25;entryDx=0;entryDy=0;" parent="X2pXI5gSGEw10GLeWByq-10" source="X2pXI5gSGEw10GLeWByq-17" target="X2pXI5gSGEw10GLeWByq-15" edge="1">
          <mxGeometry relative="1" as="geometry">
            <mxPoint x="150" y="112" as="targetPoint" />
          </mxGeometry>
        </mxCell>
        <mxCell id="X2pXI5gSGEw10GLeWByq-17" value="&lt;span style=&quot;font-size: 10px;&quot;&gt;A menu based view&lt;/span&gt;" style="verticalLabelPosition=middle;verticalAlign=middle;html=1;shape=mxgraph.basic.corner_round_rect;dx=6;whiteSpace=wrap;movableLabel=1;labelPosition=center;align=left;fillColor=#fff2cc;strokeColor=#d6b656;" parent="X2pXI5gSGEw10GLeWByq-10" vertex="1">
          <mxGeometry x="80" y="117" width="80" height="37.5" as="geometry">
            <mxPoint x="7" y="2" as="offset" />
          </mxGeometry>
        </mxCell>
        <mxCell id="X2pXI5gSGEw10GLeWByq-18" style="edgeStyle=orthogonalEdgeStyle;rounded=0;orthogonalLoop=1;jettySize=auto;html=1;exitX=0.5;exitY=1;exitDx=0;exitDy=0;exitPerimeter=0;entryX=1;entryY=0.25;entryDx=0;entryDy=0;" parent="X2pXI5gSGEw10GLeWByq-10" source="X2pXI5gSGEw10GLeWByq-19" target="X2pXI5gSGEw10GLeWByq-13" edge="1">
          <mxGeometry relative="1" as="geometry" />
        </mxCell>
        <mxCell id="X2pXI5gSGEw10GLeWByq-19" value="&lt;span style=&quot;font-size: 10px;&quot;&gt;A graphical window with:&lt;br&gt;&lt;/span&gt;&lt;span style=&quot;font-size: 10px;&quot;&gt;a text expression field,&lt;br&gt;a calculate button,&lt;br&gt;a &quot;type&quot; toggle button&lt;br&gt;and a history pane&lt;br&gt;&lt;/span&gt;" style="verticalLabelPosition=middle;verticalAlign=middle;html=1;shape=mxgraph.basic.corner_round_rect;dx=6;whiteSpace=wrap;movableLabel=1;labelPosition=center;align=left;fillColor=#fff2cc;strokeColor=#d6b656;" parent="X2pXI5gSGEw10GLeWByq-10" vertex="1">
          <mxGeometry x="550" y="92" width="130" height="87.5" as="geometry">
            <mxPoint x="6" y="1" as="offset" />
          </mxGeometry>
        </mxCell>
        <mxCell id="VudZT7btyfb3HpLIAIhP-0" style="edgeStyle=orthogonalEdgeStyle;rounded=0;orthogonalLoop=1;jettySize=auto;html=1;exitX=0.5;exitY=0;exitDx=0;exitDy=0;entryX=0.5;entryY=1;entryDx=0;entryDy=0;fontSize=12;startSize=8;endSize=8;endArrow=open;endFill=0;dashed=1;dashPattern=8 8;" parent="X2pXI5gSGEw10GLeWByq-10" source="dvdNPprNqbdEeTf_QP_p-0" target="X2pXI5gSGEw10GLeWByq-15" edge="1">
          <mxGeometry relative="1" as="geometry">
            <Array as="points">
              <mxPoint x="350" y="340" />
              <mxPoint x="245" y="340" />
            </Array>
          </mxGeometry>
        </mxCell>
        <mxCell id="dvdNPprNqbdEeTf_QP_p-0" value="&lt;p style=&quot;margin:0px;margin-top:4px;text-align:center;&quot;&gt;&lt;b&gt;application.view:ViewFactory&lt;/b&gt;&lt;/p&gt;&lt;hr size=&quot;1&quot;&gt;&lt;p style=&quot;margin:0px;margin-left:4px;&quot;&gt;&lt;/p&gt;&lt;p style=&quot;margin:0px;margin-left:4px;&quot;&gt;&lt;/p&gt;&lt;p style=&quot;margin:0px;margin-left:4px;&quot;&gt;+ create(String): ViewInterface&lt;br&gt;&lt;/p&gt;" style="verticalAlign=top;align=left;overflow=fill;fontSize=12;fontFamily=Helvetica;html=1;whiteSpace=wrap;" parent="X2pXI5gSGEw10GLeWByq-10" vertex="1">
          <mxGeometry x="250" y="350" width="200" height="55" as="geometry" />
        </mxCell>
        <mxCell id="VudZT7btyfb3HpLIAIhP-1" style="edgeStyle=orthogonalEdgeStyle;rounded=0;orthogonalLoop=1;jettySize=auto;html=1;exitX=0.5;exitY=0;exitDx=0;exitDy=0;entryX=0.5;entryY=1;entryDx=0;entryDy=0;fontSize=12;startSize=8;endSize=8;endArrow=open;endFill=0;dashed=1;dashPattern=8 8;" parent="X2pXI5gSGEw10GLeWByq-10" source="dvdNPprNqbdEeTf_QP_p-0" target="X2pXI5gSGEw10GLeWByq-13" edge="1">
          <mxGeometry relative="1" as="geometry">
            <mxPoint x="685" y="423" as="sourcePoint" />
            <mxPoint x="560" y="348" as="targetPoint" />
            <Array as="points">
              <mxPoint x="350" y="340" />
              <mxPoint x="455" y="340" />
            </Array>
          </mxGeometry>
        </mxCell>
        <mxCell id="VWhUEVuJjf0uLKaZU64z-0" style="edgeStyle=orthogonalEdgeStyle;rounded=0;orthogonalLoop=1;jettySize=auto;html=1;exitX=0.89;exitY=1.013;exitDx=0;exitDy=0;exitPerimeter=0;entryX=-0.006;entryY=0.893;entryDx=0;entryDy=0;entryPerimeter=0;fontSize=12;startSize=8;endSize=8;" edge="1" parent="X2pXI5gSGEw10GLeWByq-10" source="jvhEVwFLZDFvAKU40UGn-1" target="X2pXI5gSGEw10GLeWByq-11">
          <mxGeometry relative="1" as="geometry">
            <Array as="points">
              <mxPoint x="185" y="147" />
            </Array>
          </mxGeometry>
        </mxCell>
        <mxCell id="jvhEVwFLZDFvAKU40UGn-1" value="&lt;span style=&quot;font-size: 10px;&quot;&gt;Controller provides the view with a notification to display when changing type - helps simplify views&lt;/span&gt;" style="verticalLabelPosition=middle;verticalAlign=middle;html=1;shape=mxgraph.basic.corner_round_rect;dx=6;whiteSpace=wrap;movableLabel=1;labelPosition=center;align=left;fillColor=#fff2cc;strokeColor=#d6b656;" parent="X2pXI5gSGEw10GLeWByq-10" vertex="1">
          <mxGeometry x="20" y="40" width="185" height="59" as="geometry">
            <mxPoint x="6" y="1" as="offset" />
          </mxGeometry>
        </mxCell>
        <mxCell id="X2pXI5gSGEw10GLeWByq-24" value="&lt;font style=&quot;font-size: 18px;&quot;&gt;Model Assembly&lt;/font&gt;" style="swimlane;whiteSpace=wrap;html=1;startSize=30;rounded=1;swimlaneFillColor=#99FFFF;fillColor=#99FFFF;" parent="X2pXI5gSGEw10GLeWByq-1" vertex="1">
          <mxGeometry x="660" y="284" width="780" height="1150" as="geometry" />
        </mxCell>
        <mxCell id="X2pXI5gSGEw10GLeWByq-25" value="&lt;p style=&quot;margin:0px;margin-top:4px;text-align:center;&quot;&gt;&lt;i&gt;&amp;lt;&amp;lt;model&amp;gt;&amp;gt;&lt;/i&gt;&lt;/p&gt;&lt;b style=&quot;border-color: var(--border-color);&quot;&gt;&lt;div style=&quot;text-align: center;&quot;&gt;&lt;b style=&quot;background-color: initial; border-color: var(--border-color);&quot;&gt;application.calculator&lt;i style=&quot;background-color: initial; font-weight: normal;&quot;&gt;&lt;b&gt;:CalcModel&lt;/b&gt;&lt;/i&gt;&lt;/b&gt;&lt;/div&gt;&lt;/b&gt;&lt;hr&gt;&lt;p style=&quot;margin:0px;margin-left:4px;&quot;&gt;- current: Calculator&lt;/p&gt;&lt;p style=&quot;margin:0px;margin-left:4px;&quot;&gt;- postfix: Calculator&lt;br&gt;&lt;/p&gt;&lt;p style=&quot;margin:0px;margin-left:4px;&quot;&gt;- infix: Calculator&lt;/p&gt;&lt;hr&gt;&lt;p style=&quot;margin:0px;margin-left:4px;&quot;&gt;+ evaluate(expr:String)&lt;/p&gt;&lt;p style=&quot;margin:0px;margin-left:4px;&quot;&gt;&amp;nbsp; &amp;nbsp;throws InvalidExpression&amp;nbsp;&lt;br&gt;&lt;/p&gt;&lt;p style=&quot;margin:0px;margin-left:4px;&quot;&gt;+ setType(type:String):void&lt;/p&gt;" style="verticalAlign=top;align=left;overflow=fill;fontSize=12;fontFamily=Helvetica;html=1;whiteSpace=wrap;" parent="X2pXI5gSGEw10GLeWByq-24" vertex="1">
          <mxGeometry x="10" y="191" width="200" height="159" as="geometry" />
        </mxCell>
        <mxCell id="X2pXI5gSGEw10GLeWByq-27" style="edgeStyle=orthogonalEdgeStyle;rounded=0;orthogonalLoop=1;jettySize=auto;html=1;entryX=1;entryY=0.75;entryDx=0;entryDy=0;strokeColor=none;" parent="X2pXI5gSGEw10GLeWByq-24" source="X2pXI5gSGEw10GLeWByq-35" target="X2pXI5gSGEw10GLeWByq-25" edge="1">
          <mxGeometry relative="1" as="geometry" />
        </mxCell>
        <mxCell id="X2pXI5gSGEw10GLeWByq-28" value="&lt;p style=&quot;text-align: center; margin: 4px 0px 0px;&quot;&gt;&lt;b&gt;application.calculator:StandardCalc&lt;/b&gt;&lt;/p&gt;&lt;hr style=&quot;text-align: center;&quot; size=&quot;1&quot;&gt;&lt;p style=&quot;margin:0px;margin-left:4px;&quot;&gt;- values: OpStack&lt;/p&gt;&lt;p style=&quot;margin:0px;margin-left:4px;&quot;&gt;- rpCalc: RevPolishCalc&lt;/p&gt;&lt;hr size=&quot;1&quot;&gt;&lt;p style=&quot;border-color: var(--border-color); margin: 0px 0px 0px 4px;&quot;&gt;+ evaluate(expr:String)&lt;/p&gt;&lt;p style=&quot;border-color: var(--border-color); margin: 0px 0px 0px 4px;&quot;&gt;&amp;nbsp; &amp;nbsp;throws InvalidExpression&lt;/p&gt;" style="verticalAlign=top;align=left;overflow=fill;fontSize=12;fontFamily=Helvetica;html=1;whiteSpace=wrap;" parent="X2pXI5gSGEw10GLeWByq-24" vertex="1">
          <mxGeometry x="320" y="129" width="215" height="110" as="geometry" />
        </mxCell>
        <mxCell id="X2pXI5gSGEw10GLeWByq-29" value="&lt;p style=&quot;margin:0px;margin-top:4px;text-align:center;&quot;&gt;&lt;i&gt;&amp;lt;&amp;lt;Interface&amp;gt;&amp;gt;&lt;/i&gt;&lt;br&gt;&lt;b style=&quot;border-color: var(--border-color);&quot;&gt;application.calculator&lt;/b&gt;&lt;b&gt;:Calculator&lt;/b&gt;&lt;/p&gt;&lt;hr&gt;&lt;p style=&quot;margin:0px;margin-left:4px;&quot;&gt;+ evaluate(expr:String): float&lt;br&gt;&amp;nbsp; &amp;nbsp;throws InvalidExpression&amp;nbsp;&lt;/p&gt;" style="verticalAlign=top;align=left;overflow=fill;fontSize=12;fontFamily=Helvetica;html=1;whiteSpace=wrap;" parent="X2pXI5gSGEw10GLeWByq-24" vertex="1">
          <mxGeometry x="10" y="96" width="195" height="80" as="geometry" />
        </mxCell>
        <mxCell id="X2pXI5gSGEw10GLeWByq-30" value="&lt;div style=&quot;text-align: center; font-size: 3px;&quot;&gt;&lt;b style=&quot;background-color: initial; border-color: var(--border-color);&quot;&gt;&lt;br&gt;&lt;/b&gt;&lt;/div&gt;&lt;div style=&quot;text-align: center;&quot;&gt;&lt;b style=&quot;background-color: initial; border-color: var(--border-color);&quot;&gt;application.stack&lt;b style=&quot;background-color: initial;&quot;&gt;:NumStack&lt;/b&gt;&lt;/b&gt;&lt;/div&gt;&lt;hr size=&quot;1&quot;&gt;&lt;p style=&quot;margin:0px;margin-left:4px;&quot;&gt;&lt;/p&gt;&lt;p style=&quot;margin:0px;margin-left:4px;&quot;&gt;- numStack: Stack&lt;/p&gt;&lt;hr&gt;&lt;p style=&quot;margin:0px;margin-left:4px;&quot;&gt;+ push(float):void&lt;/p&gt;&lt;p style=&quot;margin:0px;margin-left:4px;&quot;&gt;+ pop(): float&amp;nbsp;&lt;/p&gt;&lt;p style=&quot;margin:0px;margin-left:4px;&quot;&gt;&amp;nbsp; &amp;nbsp;throws EmptyStack&lt;/p&gt;&lt;p style=&quot;margin:0px;margin-left:4px;&quot;&gt;+ top(): float&lt;/p&gt;&lt;p style=&quot;border-color: var(--border-color); margin: 0px 0px 0px 4px;&quot;&gt;&amp;nbsp; &amp;nbsp;throws EmptyStack&lt;/p&gt;&lt;p style=&quot;margin:0px;margin-left:4px;&quot;&gt;+size():int&lt;/p&gt;" style="verticalAlign=top;align=left;overflow=fill;fontSize=12;fontFamily=Helvetica;html=1;whiteSpace=wrap;" parent="X2pXI5gSGEw10GLeWByq-24" vertex="1">
          <mxGeometry x="557" y="413" width="170" height="150" as="geometry" />
        </mxCell>
        <mxCell id="X2pXI5gSGEw10GLeWByq-31" value="&lt;p style=&quot;margin:0px;margin-top:4px;text-align:center;&quot;&gt;&lt;i&gt;&amp;lt;&amp;lt;enumeration&amp;gt;&amp;gt;&lt;/i&gt;&lt;br&gt;&lt;b style=&quot;border-color: var(--border-color);&quot;&gt;application.stack.assembly&lt;/b&gt;&lt;b style=&quot;background-color: initial; text-align: left;&quot;&gt;:Symbol&lt;/b&gt;&lt;/p&gt;&lt;hr size=&quot;1&quot;&gt;&lt;p style=&quot;margin:0px;margin-left:4px;&quot;&gt;&lt;u&gt;LEFT_BRACKET&lt;/u&gt;&lt;/p&gt;&lt;p style=&quot;margin:0px;margin-left:4px;&quot;&gt;&lt;u&gt;RIGHT_BRACKET&lt;/u&gt;&lt;/p&gt;&lt;p style=&quot;margin:0px;margin-left:4px;&quot;&gt;&lt;u&gt;TIME&lt;/u&gt;&lt;/p&gt;&lt;p style=&quot;margin:0px;margin-left:4px;&quot;&gt;&lt;u&gt;DIVIDE&lt;/u&gt;&lt;/p&gt;&lt;p style=&quot;margin:0px;margin-left:4px;&quot;&gt;&lt;u&gt;PLUS&lt;/u&gt;&lt;/p&gt;&lt;p style=&quot;margin:0px;margin-left:4px;&quot;&gt;&lt;u&gt;MINUS&lt;/u&gt;&lt;/p&gt;&lt;p style=&quot;margin:0px;margin-left:4px;&quot;&gt;&lt;u&gt;INVALID&lt;/u&gt;&lt;/p&gt;" style="verticalAlign=top;align=left;overflow=fill;fontSize=12;fontFamily=Helvetica;html=1;whiteSpace=wrap;" parent="X2pXI5gSGEw10GLeWByq-24" vertex="1">
          <mxGeometry x="430" y="851" width="220" height="150" as="geometry" />
        </mxCell>
        <mxCell id="X2pXI5gSGEw10GLeWByq-32" value="&lt;p style=&quot;margin:0px;margin-top:4px;text-align:center;&quot;&gt;&lt;i&gt;&amp;lt;&amp;lt;enumeration&amp;gt;&amp;gt;&lt;/i&gt;&lt;br&gt;&lt;b style=&quot;border-color: var(--border-color);&quot;&gt;application.stack.assembly&lt;/b&gt;&lt;b style=&quot;border-color: var(--border-color); background-color: initial; text-align: left;&quot;&gt;:&lt;/b&gt;&lt;b&gt;Type&lt;/b&gt;&lt;/p&gt;&lt;hr size=&quot;1&quot;&gt;&lt;p style=&quot;margin:0px;margin-left:4px;&quot;&gt;&lt;u&gt;STRING&lt;/u&gt;&lt;/p&gt;&lt;p style=&quot;margin:0px;margin-left:4px;&quot;&gt;&lt;u&gt;NUMBER&lt;/u&gt;&lt;/p&gt;&lt;p style=&quot;margin:0px;margin-left:4px;&quot;&gt;&lt;u&gt;SYMBOL&lt;/u&gt;&lt;/p&gt;&lt;p style=&quot;margin:0px;margin-left:4px;&quot;&gt;&lt;u&gt;INVALID&lt;/u&gt;&lt;/p&gt;" style="verticalAlign=top;align=left;overflow=fill;fontSize=12;fontFamily=Helvetica;html=1;whiteSpace=wrap;" parent="X2pXI5gSGEw10GLeWByq-24" vertex="1">
          <mxGeometry x="430" y="1011" width="220" height="105" as="geometry" />
        </mxCell>
        <mxCell id="dvdNPprNqbdEeTf_QP_p-4" style="edgeStyle=orthogonalEdgeStyle;rounded=0;orthogonalLoop=1;jettySize=auto;html=1;exitX=0.5;exitY=1;exitDx=0;exitDy=0;exitPerimeter=0;entryX=0.5;entryY=0;entryDx=0;entryDy=0;fontSize=12;startSize=8;endSize=8;" parent="X2pXI5gSGEw10GLeWByq-24" source="X2pXI5gSGEw10GLeWByq-38" target="X2pXI5gSGEw10GLeWByq-29" edge="1">
          <mxGeometry relative="1" as="geometry" />
        </mxCell>
        <mxCell id="X2pXI5gSGEw10GLeWByq-38" value="&lt;font style=&quot;font-size: 10px;&quot;&gt;Allows calculation of String Expressions&lt;br&gt;&lt;/font&gt;" style="verticalLabelPosition=middle;verticalAlign=middle;html=1;shape=mxgraph.basic.corner_round_rect;dx=6;whiteSpace=wrap;movableLabel=1;labelPosition=center;align=left;fillColor=#fff2cc;strokeColor=#d6b656;" parent="X2pXI5gSGEw10GLeWByq-24" vertex="1">
          <mxGeometry x="7" y="45" width="200" height="30" as="geometry">
            <mxPoint x="12" y="2" as="offset" />
          </mxGeometry>
        </mxCell>
        <mxCell id="X2pXI5gSGEw10GLeWByq-39" value="&lt;div style=&quot;text-align: center; font-size: 3px;&quot;&gt;&lt;b style=&quot;background-color: initial; border-color: var(--border-color);&quot;&gt;&lt;br&gt;&lt;/b&gt;&lt;/div&gt;&lt;div style=&quot;text-align: center;&quot;&gt;&lt;b style=&quot;background-color: initial; border-color: var(--border-color);&quot;&gt;application.stack&lt;/b&gt;&lt;b style=&quot;background-color: initial; border-color: var(--border-color);&quot;&gt;:&lt;b style=&quot;background-color: initial;&quot;&gt;OpStack&lt;/b&gt;&lt;/b&gt;&lt;/div&gt;&lt;hr size=&quot;1&quot;&gt;&lt;p style=&quot;margin:0px;margin-left:4px;&quot;&gt;&lt;/p&gt;&lt;p style=&quot;margin:0px;margin-left:4px;&quot;&gt;- opStack: Stack&lt;/p&gt;&lt;hr&gt;&lt;p style=&quot;margin:0px;margin-left:4px;&quot;&gt;+ push(Symbol):void&lt;/p&gt;&lt;p style=&quot;margin:0px;margin-left:4px;&quot;&gt;+ pop(): Symbol&amp;nbsp;&lt;/p&gt;&lt;p style=&quot;margin:0px;margin-left:4px;&quot;&gt;&amp;nbsp; &amp;nbsp;throws EmptyStack&lt;/p&gt;&lt;p style=&quot;margin:0px;margin-left:4px;&quot;&gt;+ top(): Symbol&lt;/p&gt;&lt;p style=&quot;border-color: var(--border-color); margin: 0px 0px 0px 4px;&quot;&gt;&amp;nbsp; &amp;nbsp;throws EmptyStack&lt;/p&gt;&lt;p style=&quot;margin:0px;margin-left:4px;&quot;&gt;+size():int&lt;/p&gt;" style="verticalAlign=top;align=left;overflow=fill;fontSize=12;fontFamily=Helvetica;html=1;whiteSpace=wrap;" parent="X2pXI5gSGEw10GLeWByq-24" vertex="1">
          <mxGeometry x="382" y="413" width="160" height="150" as="geometry" />
        </mxCell>
        <mxCell id="X2pXI5gSGEw10GLeWByq-40" value="&lt;div style=&quot;text-align: center; font-size: 3px;&quot;&gt;&lt;b style=&quot;background-color: initial; border-color: var(--border-color);&quot;&gt;&lt;br&gt;&lt;/b&gt;&lt;/div&gt;&lt;div style=&quot;text-align: center;&quot;&gt;&lt;b style=&quot;background-color: initial; border-color: var(--border-color);&quot;&gt;application.stack&lt;/b&gt;&lt;b style=&quot;background-color: initial; border-color: var(--border-color);&quot;&gt;:&lt;b style=&quot;background-color: initial;&quot;&gt;StrStack&lt;/b&gt;&lt;/b&gt;&lt;/div&gt;&lt;hr size=&quot;1&quot;&gt;&lt;p style=&quot;margin:0px;margin-left:4px;&quot;&gt;&lt;/p&gt;&lt;p style=&quot;margin:0px;margin-left:4px;&quot;&gt;- strStack: Stack&lt;/p&gt;&lt;hr&gt;&lt;p style=&quot;margin:0px;margin-left:4px;&quot;&gt;+ push(String):void&lt;/p&gt;&lt;p style=&quot;margin:0px;margin-left:4px;&quot;&gt;+ pop(): String&amp;nbsp;&lt;/p&gt;&lt;p style=&quot;margin:0px;margin-left:4px;&quot;&gt;&amp;nbsp; &amp;nbsp;throws EmptyStack&lt;/p&gt;&lt;p style=&quot;margin:0px;margin-left:4px;&quot;&gt;+ top(): String&lt;/p&gt;&lt;p style=&quot;border-color: var(--border-color); margin: 0px 0px 0px 4px;&quot;&gt;&amp;nbsp; &amp;nbsp;throws EmptyStack&lt;/p&gt;&lt;p style=&quot;margin:0px;margin-left:4px;&quot;&gt;+size():int&lt;/p&gt;" style="verticalAlign=top;align=left;overflow=fill;fontSize=12;fontFamily=Helvetica;html=1;whiteSpace=wrap;" parent="X2pXI5gSGEw10GLeWByq-24" vertex="1">
          <mxGeometry x="207" y="413" width="160" height="150" as="geometry" />
        </mxCell>
        <mxCell id="X2pXI5gSGEw10GLeWByq-41" value="&lt;div style=&quot;text-align: center; font-size: 3px;&quot;&gt;&lt;b style=&quot;background-color: initial; border-color: var(--border-color);&quot;&gt;&lt;br&gt;&lt;/b&gt;&lt;/div&gt;&lt;div style=&quot;text-align: center;&quot;&gt;&lt;b style=&quot;background-color: initial; border-color: var(--border-color);&quot;&gt;application.stack&lt;/b&gt;&lt;b style=&quot;background-color: initial; border-color: var(--border-color);&quot;&gt;:&lt;b style=&quot;text-align: center; background-color: initial;&quot;&gt;Stack&lt;/b&gt;&lt;/b&gt;&lt;/div&gt;&lt;hr size=&quot;1&quot;&gt;&lt;p style=&quot;margin:0px;margin-left:4px;&quot;&gt;&lt;/p&gt;&lt;p style=&quot;margin:0px;margin-left:4px;&quot;&gt;- entries: List&amp;lt;Entry&amp;gt;&lt;/p&gt;&lt;p style=&quot;margin:0px;margin-left:4px;&quot;&gt;- size: int&lt;/p&gt;&lt;hr&gt;&lt;p style=&quot;margin:0px;margin-left:4px;&quot;&gt;+ push(Entry):void&lt;/p&gt;&lt;p style=&quot;margin:0px;margin-left:4px;&quot;&gt;+ pop(): Entry&amp;nbsp;&lt;/p&gt;&lt;p style=&quot;margin:0px;margin-left:4px;&quot;&gt;&amp;nbsp; &amp;nbsp;throws EmptyStack&lt;/p&gt;&lt;p style=&quot;margin:0px;margin-left:4px;&quot;&gt;+ top(): Entry&lt;/p&gt;&lt;p style=&quot;border-color: var(--border-color); margin: 0px 0px 0px 4px;&quot;&gt;&amp;nbsp; &amp;nbsp;throws EmptyStack&lt;/p&gt;&lt;p style=&quot;margin:0px;margin-left:4px;&quot;&gt;+size():int&lt;/p&gt;" style="verticalAlign=top;align=left;overflow=fill;fontSize=12;fontFamily=Helvetica;html=1;whiteSpace=wrap;" parent="X2pXI5gSGEw10GLeWByq-24" vertex="1">
          <mxGeometry x="387" y="671" width="150" height="166" as="geometry" />
        </mxCell>
        <mxCell id="X2pXI5gSGEw10GLeWByq-42" value="" style="endArrow=diamondThin;endFill=1;endSize=24;html=1;rounded=0;exitX=0.5;exitY=0;exitDx=0;exitDy=0;entryX=0.5;entryY=1;entryDx=0;entryDy=0;edgeStyle=orthogonalEdgeStyle;" parent="X2pXI5gSGEw10GLeWByq-24" source="X2pXI5gSGEw10GLeWByq-41" target="X2pXI5gSGEw10GLeWByq-30" edge="1">
          <mxGeometry width="160" relative="1" as="geometry">
            <mxPoint x="375" y="179" as="sourcePoint" />
            <mxPoint x="535" y="179" as="targetPoint" />
            <Array as="points">
              <mxPoint x="462" y="611" />
              <mxPoint x="642" y="611" />
            </Array>
          </mxGeometry>
        </mxCell>
        <mxCell id="X2pXI5gSGEw10GLeWByq-46" value="" style="endArrow=diamondThin;endFill=1;endSize=24;html=1;rounded=0;exitX=0.5;exitY=0;exitDx=0;exitDy=0;edgeStyle=orthogonalEdgeStyle;entryX=0.5;entryY=1;entryDx=0;entryDy=0;" parent="X2pXI5gSGEw10GLeWByq-24" source="X2pXI5gSGEw10GLeWByq-41" target="X2pXI5gSGEw10GLeWByq-39" edge="1">
          <mxGeometry width="160" relative="1" as="geometry">
            <mxPoint x="375" y="179" as="sourcePoint" />
            <mxPoint x="530" y="591" as="targetPoint" />
            <Array as="points">
              <mxPoint x="462" y="611" />
              <mxPoint x="462" y="611" />
            </Array>
          </mxGeometry>
        </mxCell>
        <mxCell id="X2pXI5gSGEw10GLeWByq-48" value="" style="endArrow=diamondThin;endFill=1;endSize=24;html=1;rounded=0;exitX=0.5;exitY=0;exitDx=0;exitDy=0;entryX=0.5;entryY=1;entryDx=0;entryDy=0;edgeStyle=orthogonalEdgeStyle;" parent="X2pXI5gSGEw10GLeWByq-24" source="X2pXI5gSGEw10GLeWByq-41" target="X2pXI5gSGEw10GLeWByq-40" edge="1">
          <mxGeometry width="160" relative="1" as="geometry">
            <mxPoint x="375" y="179" as="sourcePoint" />
            <mxPoint x="535" y="179" as="targetPoint" />
            <Array as="points">
              <mxPoint x="462" y="611" />
              <mxPoint x="287" y="611" />
            </Array>
          </mxGeometry>
        </mxCell>
        <mxCell id="X2pXI5gSGEw10GLeWByq-49" value="facade" style="edgeLabel;html=1;align=center;verticalAlign=middle;resizable=0;points=[];labelBackgroundColor=none;" parent="X2pXI5gSGEw10GLeWByq-48" vertex="1" connectable="0">
          <mxGeometry x="-0.0319" y="-2" relative="1" as="geometry">
            <mxPoint x="98" y="-8" as="offset" />
          </mxGeometry>
        </mxCell>
        <mxCell id="X2pXI5gSGEw10GLeWByq-50" value="&lt;p style=&quot;margin:0px;margin-top:4px;text-align:center;&quot;&gt;&lt;b&gt;application.stack.assembly:Entry&lt;/b&gt;&lt;/p&gt;&lt;hr&gt;&lt;p style=&quot;margin:0px;margin-left:4px;&quot;&gt;- number: float&lt;/p&gt;&lt;p style=&quot;margin:0px;margin-left:4px;&quot;&gt;- other: Symbol&lt;/p&gt;&lt;p style=&quot;margin:0px;margin-left:4px;&quot;&gt;- str: String&lt;/p&gt;&lt;p style=&quot;margin:0px;margin-left:4px;&quot;&gt;- type: Type&lt;/p&gt;&lt;hr&gt;&lt;p style=&quot;margin:0px;margin-left:4px;&quot;&gt;&lt;span style=&quot;background-color: initial;&quot;&gt;+ Entry(float value)&lt;/span&gt;&lt;br&gt;&lt;/p&gt;&lt;p style=&quot;margin:0px;margin-left:4px;&quot;&gt;+ Entry(Symbol which)&lt;/p&gt;&lt;p style=&quot;margin:0px;margin-left:4px;&quot;&gt;+ Entry(String)&lt;/p&gt;&lt;p style=&quot;margin:0px;margin-left:4px;&quot;&gt;+ getType(): Type&lt;/p&gt;&lt;p style=&quot;margin:0px;margin-left:4px;&quot;&gt;+ getString(): String&amp;nbsp;&lt;/p&gt;&lt;p style=&quot;margin:0px;margin-left:4px;&quot;&gt;&amp;nbsp; &amp;nbsp;throws BadType&lt;/p&gt;&lt;p style=&quot;margin:0px;margin-left:4px;&quot;&gt;+ getSymbol(): Symbol&amp;nbsp;&lt;/p&gt;&lt;p style=&quot;margin:0px;margin-left:4px;&quot;&gt;&amp;nbsp; &amp;nbsp;throws BadType&lt;/p&gt;&lt;p style=&quot;margin:0px;margin-left:4px;&quot;&gt;&lt;span style=&quot;background-color: initial;&quot;&gt;+ getValue(): float&lt;/span&gt;&lt;br&gt;&lt;/p&gt;&lt;p style=&quot;margin:0px;margin-left:4px;&quot;&gt;&amp;nbsp; &amp;nbsp;throws BadType&lt;/p&gt;" style="verticalAlign=top;align=left;overflow=fill;fontSize=12;fontFamily=Helvetica;html=1;whiteSpace=wrap;" parent="X2pXI5gSGEw10GLeWByq-24" vertex="1">
          <mxGeometry x="177" y="876.1800000000001" width="210" height="250" as="geometry" />
        </mxCell>
        <mxCell id="X2pXI5gSGEw10GLeWByq-51" value="" style="endArrow=diamondThin;endFill=1;endSize=24;html=1;rounded=0;exitX=0.5;exitY=0;exitDx=0;exitDy=0;entryX=0;entryY=0.25;entryDx=0;entryDy=0;edgeStyle=orthogonalEdgeStyle;" parent="X2pXI5gSGEw10GLeWByq-24" source="X2pXI5gSGEw10GLeWByq-50" target="X2pXI5gSGEw10GLeWByq-41" edge="1">
          <mxGeometry width="160" relative="1" as="geometry">
            <mxPoint x="210" y="539" as="sourcePoint" />
            <mxPoint x="370" y="539" as="targetPoint" />
          </mxGeometry>
        </mxCell>
        <mxCell id="X2pXI5gSGEw10GLeWByq-53" value="&lt;font style=&quot;font-size: 13px;&quot;&gt;0..*&lt;/font&gt;" style="edgeLabel;html=1;align=center;verticalAlign=middle;resizable=0;points=[];labelBackgroundColor=none;" parent="X2pXI5gSGEw10GLeWByq-51" vertex="1" connectable="0">
          <mxGeometry x="0.0909" y="1" relative="1" as="geometry">
            <mxPoint x="17" y="133" as="offset" />
          </mxGeometry>
        </mxCell>
        <mxCell id="X2pXI5gSGEw10GLeWByq-54" value="" style="endArrow=diamondThin;endFill=0;endSize=24;html=1;rounded=0;exitX=0;exitY=0.5;exitDx=0;exitDy=0;" parent="X2pXI5gSGEw10GLeWByq-24" source="X2pXI5gSGEw10GLeWByq-31" edge="1">
          <mxGeometry width="160" relative="1" as="geometry">
            <mxPoint x="230" y="786" as="sourcePoint" />
            <mxPoint x="390" y="926" as="targetPoint" />
          </mxGeometry>
        </mxCell>
        <mxCell id="X2pXI5gSGEw10GLeWByq-55" value="" style="endArrow=diamondThin;endFill=0;endSize=24;html=1;rounded=0;exitX=0;exitY=0.5;exitDx=0;exitDy=0;backgroundOutline=0;entryX=1;entryY=0.75;entryDx=0;entryDy=0;" parent="X2pXI5gSGEw10GLeWByq-24" source="X2pXI5gSGEw10GLeWByq-32" target="X2pXI5gSGEw10GLeWByq-50" edge="1">
          <mxGeometry width="160" relative="1" as="geometry">
            <mxPoint x="210" y="539" as="sourcePoint" />
            <mxPoint x="370" y="539" as="targetPoint" />
          </mxGeometry>
        </mxCell>
        <mxCell id="dvdNPprNqbdEeTf_QP_p-6" style="edgeStyle=orthogonalEdgeStyle;rounded=0;orthogonalLoop=1;jettySize=auto;html=1;exitX=1;exitY=0.5;exitDx=0;exitDy=0;exitPerimeter=0;fontSize=12;startSize=8;endSize=8;" parent="X2pXI5gSGEw10GLeWByq-24" source="X2pXI5gSGEw10GLeWByq-56" edge="1">
          <mxGeometry relative="1" as="geometry">
            <mxPoint x="177" y="916.1800000000001" as="targetPoint" />
          </mxGeometry>
        </mxCell>
        <mxCell id="dvdNPprNqbdEeTf_QP_p-8" style="edgeStyle=orthogonalEdgeStyle;shape=connector;rounded=0;orthogonalLoop=1;jettySize=auto;html=1;exitX=1;exitY=0.5;exitDx=0;exitDy=0;exitPerimeter=0;entryX=0;entryY=0.217;entryDx=0;entryDy=0;entryPerimeter=0;labelBackgroundColor=default;strokeColor=default;fontFamily=Helvetica;fontSize=12;fontColor=default;endArrow=classic;startSize=8;endSize=8;" parent="X2pXI5gSGEw10GLeWByq-24" source="X2pXI5gSGEw10GLeWByq-56" target="X2pXI5gSGEw10GLeWByq-50" edge="1">
          <mxGeometry relative="1" as="geometry" />
        </mxCell>
        <mxCell id="dvdNPprNqbdEeTf_QP_p-9" style="edgeStyle=orthogonalEdgeStyle;shape=connector;rounded=0;orthogonalLoop=1;jettySize=auto;html=1;exitX=1;exitY=0.5;exitDx=0;exitDy=0;exitPerimeter=0;entryX=0;entryY=0.276;entryDx=0;entryDy=0;entryPerimeter=0;labelBackgroundColor=default;strokeColor=default;fontFamily=Helvetica;fontSize=12;fontColor=default;endArrow=classic;startSize=8;endSize=8;" parent="X2pXI5gSGEw10GLeWByq-24" source="X2pXI5gSGEw10GLeWByq-56" target="X2pXI5gSGEw10GLeWByq-50" edge="1">
          <mxGeometry relative="1" as="geometry" />
        </mxCell>
        <mxCell id="X2pXI5gSGEw10GLeWByq-56" value="&lt;font style=&quot;font-size: 10px;&quot;&gt;The possible values &lt;br&gt;stored in an Entry&lt;br&gt;&lt;/font&gt;" style="verticalLabelPosition=middle;verticalAlign=middle;html=1;shape=mxgraph.basic.corner_round_rect;dx=6;whiteSpace=wrap;movableLabel=1;labelPosition=center;align=left;fillColor=#fff2cc;strokeColor=#d6b656;" parent="X2pXI5gSGEw10GLeWByq-24" vertex="1">
          <mxGeometry x="27" y="881.1800000000001" width="110" height="50" as="geometry">
            <mxPoint x="12" y="-1" as="offset" />
          </mxGeometry>
        </mxCell>
        <mxCell id="X2pXI5gSGEw10GLeWByq-60" value="&lt;font style=&quot;font-size: 10px;&quot;&gt;The type of the &quot;active&quot; value in this Entry&lt;br&gt;&lt;/font&gt;" style="verticalLabelPosition=middle;verticalAlign=middle;html=1;shape=mxgraph.basic.corner_round_rect;dx=6;whiteSpace=wrap;movableLabel=1;labelPosition=center;align=left;fillColor=#fff2cc;strokeColor=#d6b656;" parent="X2pXI5gSGEw10GLeWByq-24" vertex="1">
          <mxGeometry x="7" y="936.1800000000001" width="130" height="50" as="geometry">
            <mxPoint x="12" y="2" as="offset" />
          </mxGeometry>
        </mxCell>
        <mxCell id="X2pXI5gSGEw10GLeWByq-61" style="rounded=0;orthogonalLoop=1;jettySize=auto;html=1;exitX=1;exitY=0.5;exitDx=0;exitDy=0;exitPerimeter=0;" parent="X2pXI5gSGEw10GLeWByq-24" source="X2pXI5gSGEw10GLeWByq-60" edge="1">
          <mxGeometry relative="1" as="geometry">
            <mxPoint x="177" y="961.1800000000001" as="targetPoint" />
            <mxPoint x="127" y="996.1800000000001" as="sourcePoint" />
          </mxGeometry>
        </mxCell>
        <mxCell id="X2pXI5gSGEw10GLeWByq-62" value="&lt;font style=&quot;font-size: 10px;&quot;&gt;The non-number tokens possible in an expression&lt;br&gt;&lt;/font&gt;" style="verticalLabelPosition=middle;verticalAlign=middle;html=1;shape=mxgraph.basic.corner_round_rect;dx=6;whiteSpace=wrap;movableLabel=1;labelPosition=center;align=left;fillColor=#fff2cc;strokeColor=#d6b656;" parent="X2pXI5gSGEw10GLeWByq-24" vertex="1">
          <mxGeometry x="630" y="787" width="140" height="50" as="geometry">
            <mxPoint x="18" y="-2" as="offset" />
          </mxGeometry>
        </mxCell>
        <mxCell id="X2pXI5gSGEw10GLeWByq-63" style="edgeStyle=orthogonalEdgeStyle;rounded=0;orthogonalLoop=1;jettySize=auto;html=1;entryX=1;entryY=0.5;entryDx=0;entryDy=0;exitX=0.5;exitY=1;exitDx=0;exitDy=0;exitPerimeter=0;" parent="X2pXI5gSGEw10GLeWByq-24" source="X2pXI5gSGEw10GLeWByq-62" target="X2pXI5gSGEw10GLeWByq-31" edge="1">
          <mxGeometry relative="1" as="geometry">
            <mxPoint x="720" y="876" as="sourcePoint" />
          </mxGeometry>
        </mxCell>
        <mxCell id="X2pXI5gSGEw10GLeWByq-64" value="&lt;font style=&quot;font-size: 10px;&quot;&gt;The possible &quot;types&quot;&lt;br&gt;of an Entry object&lt;br&gt;&lt;/font&gt;" style="verticalLabelPosition=middle;verticalAlign=middle;html=1;shape=mxgraph.basic.corner_round_rect;dx=6;whiteSpace=wrap;movableLabel=1;labelPosition=center;align=left;fillColor=#fff2cc;strokeColor=#d6b656;" parent="X2pXI5gSGEw10GLeWByq-24" vertex="1">
          <mxGeometry x="660" y="1016" width="110" height="50" as="geometry">
            <mxPoint x="13" y="-1" as="offset" />
          </mxGeometry>
        </mxCell>
        <mxCell id="X2pXI5gSGEw10GLeWByq-65" style="edgeStyle=orthogonalEdgeStyle;rounded=0;orthogonalLoop=1;jettySize=auto;html=1;entryX=1;entryY=0.75;entryDx=0;entryDy=0;exitX=0.5;exitY=1;exitDx=0;exitDy=0;exitPerimeter=0;" parent="X2pXI5gSGEw10GLeWByq-24" source="X2pXI5gSGEw10GLeWByq-64" target="X2pXI5gSGEw10GLeWByq-32" edge="1">
          <mxGeometry relative="1" as="geometry">
            <mxPoint x="640" y="1056" as="targetPoint" />
          </mxGeometry>
        </mxCell>
        <mxCell id="Obqrjg2rpG8KoHpyTrRu-2" value="" style="endArrow=diamondThin;endFill=0;endSize=24;html=1;rounded=0;exitX=0.5;exitY=0;exitDx=0;exitDy=0;edgeStyle=orthogonalEdgeStyle;entryX=0.427;entryY=1.017;entryDx=0;entryDy=0;entryPerimeter=0;" parent="X2pXI5gSGEw10GLeWByq-24" source="X2pXI5gSGEw10GLeWByq-30" target="X2pXI5gSGEw10GLeWByq-26" edge="1">
          <mxGeometry width="160" relative="1" as="geometry">
            <mxPoint x="610" y="278" as="sourcePoint" />
            <mxPoint x="680" y="316" as="targetPoint" />
            <Array as="points">
              <mxPoint x="644" y="413" />
            </Array>
          </mxGeometry>
        </mxCell>
        <mxCell id="Obqrjg2rpG8KoHpyTrRu-3" value="" style="edgeStyle=orthogonalEdgeStyle;rounded=0;orthogonalLoop=1;jettySize=auto;html=1;entryX=1;entryY=0.75;entryDx=0;entryDy=0;strokeColor=none;" parent="X2pXI5gSGEw10GLeWByq-24" edge="1">
          <mxGeometry relative="1" as="geometry">
            <mxPoint x="535" y="185" as="sourcePoint" />
            <mxPoint x="770" y="212.5" as="targetPoint" />
          </mxGeometry>
        </mxCell>
        <mxCell id="X2pXI5gSGEw10GLeWByq-26" value="&lt;div style=&quot;text-align: center; font-size: 3px;&quot;&gt;&lt;b style=&quot;background-color: initial; border-color: var(--border-color);&quot;&gt;&lt;br&gt;&lt;/b&gt;&lt;/div&gt;&lt;div style=&quot;text-align: center;&quot;&gt;&lt;b style=&quot;background-color: initial; border-color: var(--border-color);&quot;&gt;application.calculator&lt;b style=&quot;background-color: initial;&quot;&gt;:RevPolishCalc&lt;/b&gt;&lt;/b&gt;&lt;/div&gt;&lt;hr style=&quot;text-align: center;&quot; size=&quot;1&quot;&gt;&lt;p style=&quot;margin:0px;margin-left:4px;&quot;&gt;&lt;/p&gt;&lt;p style=&quot;margin:0px;margin-left:4px;&quot;&gt;- numStack: NumStack&lt;/p&gt;&lt;hr&gt;&lt;p style=&quot;margin:0px;margin-left:4px;&quot;&gt;+ evaluate(expr:String)&lt;/p&gt;&lt;p style=&quot;margin:0px;margin-left:4px;&quot;&gt;&amp;nbsp; &amp;nbsp;throws InvalidExpression&lt;/p&gt;" style="verticalAlign=top;align=left;overflow=fill;fontSize=12;fontFamily=Helvetica;html=1;whiteSpace=wrap;" parent="X2pXI5gSGEw10GLeWByq-24" vertex="1">
          <mxGeometry x="550" y="129" width="220" height="110" as="geometry" />
        </mxCell>
        <mxCell id="Obqrjg2rpG8KoHpyTrRu-5" style="edgeStyle=orthogonalEdgeStyle;rounded=0;orthogonalLoop=1;jettySize=auto;html=1;entryX=0.5;entryY=1;entryDx=0;entryDy=0;exitX=0.693;exitY=0;exitDx=0;exitDy=0;exitPerimeter=0;" parent="X2pXI5gSGEw10GLeWByq-24" source="X2pXI5gSGEw10GLeWByq-35" target="X2pXI5gSGEw10GLeWByq-28" edge="1">
          <mxGeometry relative="1" as="geometry">
            <mxPoint x="523.6400000000001" y="127.68000000000006" as="targetPoint" />
            <mxPoint x="455" y="301" as="sourcePoint" />
            <Array as="points">
              <mxPoint x="427" y="301" />
              <mxPoint x="428" y="301" />
              <mxPoint x="428" y="270" />
            </Array>
          </mxGeometry>
        </mxCell>
        <mxCell id="Obqrjg2rpG8KoHpyTrRu-7" value="adapter" style="edgeLabel;html=1;align=center;verticalAlign=middle;resizable=0;points=[];labelBackgroundColor=none;" parent="X2pXI5gSGEw10GLeWByq-24" vertex="1" connectable="0">
          <mxGeometry x="550.9954545454545" y="624" as="geometry">
            <mxPoint x="-25" y="-224" as="offset" />
          </mxGeometry>
        </mxCell>
        <mxCell id="Hft6j1w_wfWvng5qgujp-0" value="" style="endArrow=diamondThin;endFill=1;endSize=24;html=1;rounded=0;edgeStyle=orthogonalEdgeStyle;exitX=0.75;exitY=0;exitDx=0;exitDy=0;entryX=1;entryY=0.5;entryDx=0;entryDy=0;" parent="X2pXI5gSGEw10GLeWByq-24" source="X2pXI5gSGEw10GLeWByq-28" target="X2pXI5gSGEw10GLeWByq-25" edge="1">
          <mxGeometry width="160" relative="1" as="geometry">
            <mxPoint x="340" y="299" as="sourcePoint" />
            <mxPoint x="250" y="319" as="targetPoint" />
            <Array as="points">
              <mxPoint x="481" y="119" />
              <mxPoint x="270" y="119" />
              <mxPoint x="270" y="271" />
            </Array>
          </mxGeometry>
        </mxCell>
        <mxCell id="WHV7B9JH5ZhN6hMvgkE5-0" style="edgeStyle=orthogonalEdgeStyle;rounded=0;orthogonalLoop=1;jettySize=auto;html=1;startArrow=none;startFill=0;endArrow=block;endFill=0;entryX=1;entryY=0.25;entryDx=0;entryDy=0;exitX=1;exitY=0.25;exitDx=0;exitDy=0;" parent="X2pXI5gSGEw10GLeWByq-24" source="X2pXI5gSGEw10GLeWByq-25" target="X2pXI5gSGEw10GLeWByq-29" edge="1">
          <mxGeometry relative="1" as="geometry">
            <mxPoint x="340" y="119" as="targetPoint" />
            <Array as="points">
              <mxPoint x="210" y="236" />
              <mxPoint x="220" y="236" />
              <mxPoint x="220" y="116" />
            </Array>
            <mxPoint x="225" y="198" as="sourcePoint" />
          </mxGeometry>
        </mxCell>
        <mxCell id="X2pXI5gSGEw10GLeWByq-34" value="&lt;font style=&quot;font-size: 10px;&quot;&gt;Evaluates a String as a Reverse Polish expression&lt;br&gt;&lt;/font&gt;" style="verticalLabelPosition=middle;verticalAlign=middle;html=1;shape=mxgraph.basic.corner_round_rect;dx=6;whiteSpace=wrap;movableLabel=1;labelPosition=center;align=left;fillColor=#fff2cc;strokeColor=#d6b656;" parent="X2pXI5gSGEw10GLeWByq-24" vertex="1">
          <mxGeometry x="635" y="47" width="130" height="50" as="geometry">
            <mxPoint x="5" as="offset" />
          </mxGeometry>
        </mxCell>
        <mxCell id="WHV7B9JH5ZhN6hMvgkE5-2" value="" style="endArrow=diamondThin;endFill=1;endSize=24;html=1;rounded=0;edgeStyle=orthogonalEdgeStyle;exitX=0.75;exitY=0;exitDx=0;exitDy=0;entryX=1;entryY=0.5;entryDx=0;entryDy=0;" parent="X2pXI5gSGEw10GLeWByq-24" source="X2pXI5gSGEw10GLeWByq-26" target="X2pXI5gSGEw10GLeWByq-25" edge="1">
          <mxGeometry width="160" relative="1" as="geometry">
            <mxPoint x="660" y="109" as="sourcePoint" />
            <mxPoint x="270" y="309" as="targetPoint" />
            <Array as="points">
              <mxPoint x="720" y="129" />
              <mxPoint x="720" y="119" />
              <mxPoint x="270" y="119" />
              <mxPoint x="270" y="271" />
            </Array>
          </mxGeometry>
        </mxCell>
        <mxCell id="WHV7B9JH5ZhN6hMvgkE5-3" style="edgeStyle=orthogonalEdgeStyle;rounded=0;orthogonalLoop=1;jettySize=auto;html=1;startArrow=none;startFill=0;endArrow=block;endFill=0;entryX=1;entryY=0.25;entryDx=0;entryDy=0;exitX=0.75;exitY=0;exitDx=0;exitDy=0;" parent="X2pXI5gSGEw10GLeWByq-24" source="X2pXI5gSGEw10GLeWByq-28" target="X2pXI5gSGEw10GLeWByq-29" edge="1">
          <mxGeometry relative="1" as="geometry">
            <mxPoint x="215" y="138" as="targetPoint" />
            <Array as="points">
              <mxPoint x="515" y="109" />
              <mxPoint x="220" y="109" />
              <mxPoint x="220" y="128" />
            </Array>
            <mxPoint x="510" y="128" as="sourcePoint" />
          </mxGeometry>
        </mxCell>
        <mxCell id="WHV7B9JH5ZhN6hMvgkE5-4" style="edgeStyle=orthogonalEdgeStyle;rounded=0;orthogonalLoop=1;jettySize=auto;html=1;startArrow=none;startFill=0;endArrow=block;endFill=0;entryX=1;entryY=0.25;entryDx=0;entryDy=0;exitX=0.75;exitY=0;exitDx=0;exitDy=0;" parent="X2pXI5gSGEw10GLeWByq-24" source="X2pXI5gSGEw10GLeWByq-26" target="X2pXI5gSGEw10GLeWByq-29" edge="1">
          <mxGeometry relative="1" as="geometry">
            <mxPoint x="215" y="138" as="targetPoint" />
            <Array as="points">
              <mxPoint x="720" y="129" />
              <mxPoint x="720" y="109" />
              <mxPoint x="220" y="109" />
              <mxPoint x="220" y="116" />
            </Array>
            <mxPoint x="525" y="139" as="sourcePoint" />
          </mxGeometry>
        </mxCell>
        <mxCell id="WHV7B9JH5ZhN6hMvgkE5-5" value="" style="edgeStyle=orthogonalEdgeStyle;rounded=0;orthogonalLoop=1;jettySize=auto;html=1;entryX=1;entryY=0.75;entryDx=0;entryDy=0;strokeColor=none;" parent="X2pXI5gSGEw10GLeWByq-24" source="X2pXI5gSGEw10GLeWByq-26" target="X2pXI5gSGEw10GLeWByq-35" edge="1">
          <mxGeometry relative="1" as="geometry">
            <mxPoint x="970" y="234" as="sourcePoint" />
            <mxPoint x="605" y="360" as="targetPoint" />
          </mxGeometry>
        </mxCell>
        <mxCell id="X2pXI5gSGEw10GLeWByq-35" value="&lt;font style=&quot;font-size: 10px;&quot;&gt;&amp;nbsp; &amp;nbsp; Evaluates a String as an&lt;br&gt;&amp;nbsp; &amp;nbsp; infix expression&lt;br&gt;&lt;/font&gt;" style="verticalLabelPosition=middle;verticalAlign=middle;html=1;shape=mxgraph.basic.corner_round_rect;dx=6;whiteSpace=wrap;movableLabel=1;labelPosition=center;align=left;fillColor=#fff2cc;strokeColor=#d6b656;" parent="X2pXI5gSGEw10GLeWByq-24" vertex="1">
          <mxGeometry x="330" y="263" width="140" height="50" as="geometry">
            <mxPoint x="3" y="2" as="offset" />
          </mxGeometry>
        </mxCell>
        <mxCell id="m2RUkCJ0LsggrkBOxo6s-0" value="&lt;p style=&quot;margin:0px;margin-top:4px;text-align:center;&quot;&gt;&lt;b&gt;application.calculator:CalculatorFactory&lt;/b&gt;&lt;/p&gt;&lt;hr size=&quot;1&quot;&gt;&lt;p style=&quot;margin:0px;margin-left:4px;&quot;&gt;&lt;/p&gt;&lt;p style=&quot;margin:0px;margin-left:4px;&quot;&gt;&lt;/p&gt;&lt;p style=&quot;margin:0px;margin-left:4px;&quot;&gt;+ create(String): Calculator&lt;br&gt;&lt;/p&gt;" style="verticalAlign=top;align=left;overflow=fill;fontSize=12;fontFamily=Helvetica;html=1;whiteSpace=wrap;" parent="X2pXI5gSGEw10GLeWByq-24" vertex="1">
          <mxGeometry x="230" y="341" width="260" height="55" as="geometry" />
        </mxCell>
        <mxCell id="Obqrjg2rpG8KoHpyTrRu-8" value="adapter" style="edgeLabel;html=1;align=center;verticalAlign=middle;resizable=0;points=[];labelBackgroundColor=none;" parent="X2pXI5gSGEw10GLeWByq-24" vertex="1" connectable="0">
          <mxGeometry x="728.9954545454545" y="1033" as="geometry">
            <mxPoint x="-56" y="-631" as="offset" />
          </mxGeometry>
        </mxCell>
        <mxCell id="m2RUkCJ0LsggrkBOxo6s-2" value="" style="endArrow=diamondThin;endFill=0;endSize=24;html=1;rounded=0;exitX=0.5;exitY=0;exitDx=0;exitDy=0;edgeStyle=orthogonalEdgeStyle;" parent="X2pXI5gSGEw10GLeWByq-24" edge="1">
          <mxGeometry width="160" relative="1" as="geometry">
            <mxPoint x="494" y="413" as="sourcePoint" />
            <mxPoint x="502" y="241" as="targetPoint" />
            <Array as="points">
              <mxPoint x="502" y="413" />
            </Array>
          </mxGeometry>
        </mxCell>
        <mxCell id="m2RUkCJ0LsggrkBOxo6s-3" style="edgeStyle=orthogonalEdgeStyle;rounded=0;orthogonalLoop=1;jettySize=auto;html=1;entryX=0.859;entryY=-0.004;entryDx=0;entryDy=0;entryPerimeter=0;exitX=0.822;exitY=1.008;exitDx=0;exitDy=0;exitPerimeter=0;" parent="X2pXI5gSGEw10GLeWByq-24" source="X2pXI5gSGEw10GLeWByq-34" target="X2pXI5gSGEw10GLeWByq-26" edge="1">
          <mxGeometry relative="1" as="geometry">
            <mxPoint x="485" y="249" as="targetPoint" />
            <mxPoint x="485" y="311" as="sourcePoint" />
            <Array as="points" />
          </mxGeometry>
        </mxCell>
        <mxCell id="m2RUkCJ0LsggrkBOxo6s-4" style="edgeStyle=orthogonalEdgeStyle;rounded=0;orthogonalLoop=1;jettySize=auto;html=1;fontSize=12;startSize=8;endSize=8;endArrow=open;endFill=0;dashed=1;dashPattern=8 8;exitX=0.5;exitY=0;exitDx=0;exitDy=0;" parent="X2pXI5gSGEw10GLeWByq-24" source="m2RUkCJ0LsggrkBOxo6s-0" edge="1">
          <mxGeometry relative="1" as="geometry">
            <Array as="points">
              <mxPoint x="360" y="321" />
              <mxPoint x="210" y="321" />
            </Array>
            <mxPoint x="360" y="321" as="sourcePoint" />
            <mxPoint x="210" y="321" as="targetPoint" />
          </mxGeometry>
        </mxCell>
        <mxCell id="m2RUkCJ0LsggrkBOxo6s-5" style="edgeStyle=orthogonalEdgeStyle;rounded=0;orthogonalLoop=1;jettySize=auto;html=1;fontSize=12;startSize=8;endSize=8;endArrow=open;endFill=0;dashed=1;dashPattern=8 8;exitX=0.5;exitY=0;exitDx=0;exitDy=0;entryX=0.25;entryY=1;entryDx=0;entryDy=0;" parent="X2pXI5gSGEw10GLeWByq-24" target="X2pXI5gSGEw10GLeWByq-26" edge="1">
          <mxGeometry relative="1" as="geometry">
            <Array as="points">
              <mxPoint x="360" y="321" />
              <mxPoint x="605" y="321" />
            </Array>
            <mxPoint x="360" y="341" as="sourcePoint" />
            <mxPoint x="210" y="321" as="targetPoint" />
          </mxGeometry>
        </mxCell>
        <mxCell id="m2RUkCJ0LsggrkBOxo6s-6" style="edgeStyle=orthogonalEdgeStyle;rounded=0;orthogonalLoop=1;jettySize=auto;html=1;fontSize=12;startSize=8;endSize=8;endArrow=open;endFill=0;dashed=1;dashPattern=8 8;exitX=0.5;exitY=0;exitDx=0;exitDy=0;entryX=0.75;entryY=1;entryDx=0;entryDy=0;" parent="X2pXI5gSGEw10GLeWByq-24" edge="1">
          <mxGeometry relative="1" as="geometry">
            <Array as="points">
              <mxPoint x="360" y="321" />
              <mxPoint x="481" y="321" />
            </Array>
            <mxPoint x="360" y="341" as="sourcePoint" />
            <mxPoint x="481" y="239" as="targetPoint" />
          </mxGeometry>
        </mxCell>
        <mxCell id="m2RUkCJ0LsggrkBOxo6s-8" style="edgeStyle=orthogonalEdgeStyle;rounded=0;orthogonalLoop=1;jettySize=auto;html=1;exitX=1;exitY=0.5;exitDx=0;exitDy=0;exitPerimeter=0;entryX=0.75;entryY=1;entryDx=0;entryDy=0;fontSize=12;startSize=8;endSize=8;" parent="X2pXI5gSGEw10GLeWByq-24" source="m2RUkCJ0LsggrkBOxo6s-7" target="X2pXI5gSGEw10GLeWByq-25" edge="1">
          <mxGeometry relative="1" as="geometry" />
        </mxCell>
        <mxCell id="m2RUkCJ0LsggrkBOxo6s-7" value="&lt;font style=&quot;font-size: 10px;&quot;&gt;&amp;nbsp; &amp;nbsp; Used for state design&amp;nbsp; &amp;nbsp; &amp;nbsp; &amp;nbsp; &amp;nbsp; &amp;nbsp; &amp;nbsp; &amp;nbsp; pattern - sets which&amp;nbsp; &amp;nbsp; &amp;nbsp; &amp;nbsp; &amp;nbsp; &amp;nbsp; &amp;nbsp; &amp;nbsp; &amp;nbsp; calculator to use&lt;br&gt;&lt;/font&gt;" style="verticalLabelPosition=middle;verticalAlign=middle;html=1;shape=mxgraph.basic.corner_round_rect;dx=6;whiteSpace=wrap;movableLabel=1;labelPosition=center;align=left;fillColor=#fff2cc;strokeColor=#d6b656;" parent="X2pXI5gSGEw10GLeWByq-24" vertex="1">
          <mxGeometry x="12" y="363" width="140" height="50" as="geometry">
            <mxPoint x="3" y="2" as="offset" />
          </mxGeometry>
        </mxCell>
        <mxCell id="m2RUkCJ0LsggrkBOxo6s-13" value="" style="endArrow=diamondThin;endFill=1;endSize=24;html=1;rounded=0;edgeStyle=orthogonalEdgeStyle;entryX=0.937;entryY=1.033;entryDx=0;entryDy=0;entryPerimeter=0;exitX=0.105;exitY=1.024;exitDx=0;exitDy=0;exitPerimeter=0;" parent="X2pXI5gSGEw10GLeWByq-24" source="X2pXI5gSGEw10GLeWByq-26" target="X2pXI5gSGEw10GLeWByq-28" edge="1">
          <mxGeometry width="160" relative="1" as="geometry">
            <mxPoint x="730" y="726" as="sourcePoint" />
            <mxPoint x="120" y="518" as="targetPoint" />
            <Array as="points">
              <mxPoint x="573" y="286" />
              <mxPoint x="521" y="286" />
            </Array>
          </mxGeometry>
        </mxCell>
        <mxCell id="X2pXI5gSGEw10GLeWByq-66" style="edgeStyle=orthogonalEdgeStyle;rounded=0;orthogonalLoop=1;jettySize=auto;html=1;dashed=1;curved=1;strokeWidth=2;entryX=0;entryY=0.25;entryDx=0;entryDy=0;" parent="X2pXI5gSGEw10GLeWByq-1" source="X2pXI5gSGEw10GLeWByq-2" target="X2pXI5gSGEw10GLeWByq-25" edge="1">
          <mxGeometry relative="1" as="geometry">
            <Array as="points">
              <mxPoint x="620" y="894" />
              <mxPoint x="620" y="515" />
            </Array>
            <mxPoint x="630" y="344" as="targetPoint" />
          </mxGeometry>
        </mxCell>
        <mxCell id="VudZT7btyfb3HpLIAIhP-3" style="edgeStyle=orthogonalEdgeStyle;rounded=0;orthogonalLoop=1;jettySize=auto;html=1;entryX=0.75;entryY=1;entryDx=0;entryDy=0;fontSize=12;startSize=8;endSize=8;endArrow=open;endFill=0;exitX=0.5;exitY=0;exitDx=0;exitDy=0;" parent="X2pXI5gSGEw10GLeWByq-1" source="X2pXI5gSGEw10GLeWByq-2" target="X2pXI5gSGEw10GLeWByq-13" edge="1">
          <mxGeometry relative="1" as="geometry">
            <mxPoint x="290" y="954" as="sourcePoint" />
            <Array as="points">
              <mxPoint x="250" y="714" />
              <mxPoint x="403" y="714" />
              <mxPoint x="403" y="664" />
            </Array>
          </mxGeometry>
        </mxCell>
        <mxCell id="VudZT7btyfb3HpLIAIhP-4" style="edgeStyle=orthogonalEdgeStyle;rounded=0;orthogonalLoop=1;jettySize=auto;html=1;exitX=0.5;exitY=0;exitDx=0;exitDy=0;fontSize=12;startSize=8;endSize=8;endArrow=open;endFill=0;entryX=0.25;entryY=1;entryDx=0;entryDy=0;" parent="X2pXI5gSGEw10GLeWByq-1" source="X2pXI5gSGEw10GLeWByq-2" target="X2pXI5gSGEw10GLeWByq-15" edge="1">
          <mxGeometry relative="1" as="geometry">
            <mxPoint x="340" y="844" as="sourcePoint" />
            <mxPoint x="20" y="564" as="targetPoint" />
            <Array as="points">
              <mxPoint x="250" y="714" />
              <mxPoint x="98" y="714" />
              <mxPoint x="98" y="664" />
            </Array>
          </mxGeometry>
        </mxCell>
        <mxCell id="m2RUkCJ0LsggrkBOxo6s-11" value="&lt;font style=&quot;font-size: 11px;&quot;&gt;observer&lt;/font&gt;" style="text;html=1;strokeColor=none;fillColor=none;align=center;verticalAlign=middle;whiteSpace=wrap;rounded=0;fontSize=16;" parent="X2pXI5gSGEw10GLeWByq-1" vertex="1">
          <mxGeometry x="247" y="708" width="60" height="30" as="geometry" />
        </mxCell>
      </root>
    </mxGraphModel>
  </diagram>
  <diagram id="C5RBs43oDa-KdzZeNtuy" name="Original">
    <mxGraphModel dx="1450" dy="878" grid="1" gridSize="10" guides="1" tooltips="1" connect="1" arrows="1" fold="1" page="1" pageScale="1" pageWidth="400" pageHeight="370" background="#FF3333" math="0" shadow="0">
      <root>
        <mxCell id="WIyWlLk6GJQsqaUBKTNV-0" />
        <mxCell id="WIyWlLk6GJQsqaUBKTNV-1" parent="WIyWlLk6GJQsqaUBKTNV-0" />
        <mxCell id="o-XdoUrNxBxSu6kzfxyW-13" value="&lt;p style=&quot;line-height: 0%;&quot;&gt;&lt;font style=&quot;font-size: 20px;&quot;&gt;Controller&lt;/font&gt;&lt;/p&gt;" style="swimlane;whiteSpace=wrap;html=1;swimlaneFillColor=#99FFFF;rounded=1;startSize=30;fillColor=#99FFFF;" parent="WIyWlLk6GJQsqaUBKTNV-1" vertex="1">
          <mxGeometry x="-160" y="670" width="460" height="200" as="geometry">
            <mxRectangle x="-160" y="670" width="140" height="40" as="alternateBounds" />
          </mxGeometry>
        </mxCell>
        <mxCell id="o-XdoUrNxBxSu6kzfxyW-0" value="&lt;p style=&quot;margin:0px;margin-top:4px;text-align:center;&quot;&gt;&lt;i&gt;&lt;font color=&quot;#000000&quot;&gt;&amp;lt;&amp;lt;controller&amp;gt;&amp;gt;&lt;/font&gt;&lt;/i&gt;&lt;/p&gt;&lt;p style=&quot;margin:0px;margin-top:4px;text-align:center;&quot;&gt;&lt;i&gt;&lt;b&gt;&lt;font color=&quot;#000000&quot;&gt;cs2800:CalcController&lt;/font&gt;&lt;/b&gt;&lt;/i&gt;&lt;/p&gt;&lt;hr&gt;&lt;p style=&quot;margin:0px;margin-left:4px;&quot;&gt;&lt;font color=&quot;#000000&quot;&gt;- model: CalcModel&lt;br&gt;- view : CalcView&lt;/font&gt;&lt;/p&gt;&lt;p style=&quot;margin:0px;margin-left:4px;&quot;&gt;&lt;font color=&quot;#000000&quot;&gt;- isInFix : boolean&lt;/font&gt;&lt;/p&gt;&lt;hr size=&quot;1&quot;&gt;&lt;p style=&quot;margin:0px;margin-left:4px;&quot;&gt;&lt;font color=&quot;#000000&quot;&gt;+ calculate(): void&lt;br&gt;+ expressionTypeChange: void&lt;/font&gt;&lt;/p&gt;" style="verticalAlign=top;align=left;overflow=fill;fontSize=12;fontFamily=Helvetica;html=1;whiteSpace=wrap;fillColor=default;fontColor=#ffffff;strokeColor=default;" parent="o-XdoUrNxBxSu6kzfxyW-13" vertex="1">
          <mxGeometry x="110" y="40" width="200" height="140" as="geometry" />
        </mxCell>
        <mxCell id="o-XdoUrNxBxSu6kzfxyW-1" value="&lt;font style=&quot;font-size: 10px;&quot;&gt;1. Create View and Model&lt;br&gt;&lt;/font&gt;&lt;font style=&quot;font-size: 10px;&quot;&gt;2. Adds itself as an Observer to the View so that (asynchronous) changes can be observed&lt;/font&gt;" style="verticalLabelPosition=middle;verticalAlign=middle;html=1;shape=mxgraph.basic.corner_round_rect;dx=6;whiteSpace=wrap;movableLabel=1;labelPosition=center;align=left;fillColor=#fff2cc;strokeColor=#d6b656;" parent="o-XdoUrNxBxSu6kzfxyW-13" vertex="1">
          <mxGeometry x="315" y="83" width="140" height="80" as="geometry">
            <mxPoint x="5" y="3" as="offset" />
          </mxGeometry>
        </mxCell>
        <mxCell id="o-XdoUrNxBxSu6kzfxyW-4" value="" style="rounded=0;orthogonalLoop=1;jettySize=auto;html=1;entryX=1.003;entryY=0.06;entryDx=0;entryDy=0;entryPerimeter=0;exitX=0.39;exitY=0.035;exitDx=0;exitDy=0;exitPerimeter=0;" parent="o-XdoUrNxBxSu6kzfxyW-13" source="o-XdoUrNxBxSu6kzfxyW-1" target="o-XdoUrNxBxSu6kzfxyW-0" edge="1">
          <mxGeometry relative="1" as="geometry" />
        </mxCell>
        <mxCell id="o-XdoUrNxBxSu6kzfxyW-5" value="&lt;span style=&quot;font-size: 10px;&quot;&gt;Is notified when a calculation is required&lt;/span&gt;" style="verticalLabelPosition=middle;verticalAlign=middle;html=1;shape=mxgraph.basic.corner_round_rect;dx=6;whiteSpace=wrap;movableLabel=1;labelPosition=center;align=left;fillColor=#fff2cc;strokeColor=#d6b656;" parent="o-XdoUrNxBxSu6kzfxyW-13" vertex="1">
          <mxGeometry x="18" y="38" width="70" height="70" as="geometry">
            <mxPoint x="6" y="1" as="offset" />
          </mxGeometry>
        </mxCell>
        <mxCell id="o-XdoUrNxBxSu6kzfxyW-6" style="rounded=0;orthogonalLoop=1;jettySize=auto;html=1;entryX=0.005;entryY=0.805;entryDx=0;entryDy=0;entryPerimeter=0;" parent="o-XdoUrNxBxSu6kzfxyW-13" source="o-XdoUrNxBxSu6kzfxyW-5" target="o-XdoUrNxBxSu6kzfxyW-0" edge="1">
          <mxGeometry relative="1" as="geometry" />
        </mxCell>
        <mxCell id="o-XdoUrNxBxSu6kzfxyW-7" value="&lt;span style=&quot;font-size: 10px;&quot;&gt;Is notified when the expression type is changed required&lt;/span&gt;" style="verticalLabelPosition=middle;verticalAlign=middle;html=1;shape=mxgraph.basic.corner_round_rect;dx=6;whiteSpace=wrap;movableLabel=1;labelPosition=center;align=left;fillColor=#fff2cc;strokeColor=#d6b656;" parent="o-XdoUrNxBxSu6kzfxyW-13" vertex="1">
          <mxGeometry x="5" y="120" width="80" height="70" as="geometry">
            <mxPoint x="6" y="1" as="offset" />
          </mxGeometry>
        </mxCell>
        <mxCell id="o-XdoUrNxBxSu6kzfxyW-24" value="" style="rounded=0;orthogonalLoop=1;jettySize=auto;html=1;entryX=0;entryY=0.913;entryDx=0;entryDy=0;entryPerimeter=0;" parent="o-XdoUrNxBxSu6kzfxyW-13" source="o-XdoUrNxBxSu6kzfxyW-7" target="o-XdoUrNxBxSu6kzfxyW-0" edge="1">
          <mxGeometry relative="1" as="geometry">
            <mxPoint x="60" y="265" as="sourcePoint" />
            <mxPoint x="296" y="247" as="targetPoint" />
          </mxGeometry>
        </mxCell>
        <mxCell id="o-XdoUrNxBxSu6kzfxyW-15" value="&lt;p style=&quot;line-height: 150%;&quot;&gt;&lt;font style=&quot;font-size: 21px;&quot;&gt;View Assembly&lt;/font&gt;&lt;/p&gt;" style="swimlane;whiteSpace=wrap;html=1;rounded=1;swimlaneFillColor=#99FFFF;fillColor=#99FFFF;strokeColor=#FF3333;startSize=24;" parent="WIyWlLk6GJQsqaUBKTNV-1" vertex="1">
          <mxGeometry x="-260" y="170" width="590" height="320" as="geometry" />
        </mxCell>
        <mxCell id="o-XdoUrNxBxSu6kzfxyW-14" value="&lt;p style=&quot;margin:0px;margin-top:4px;text-align:center;&quot;&gt;&lt;i&gt;&amp;lt;&amp;lt;Interface&amp;gt;&amp;gt;&lt;/i&gt;&lt;br&gt;&lt;b&gt;cs2800::ViewInterface&lt;/b&gt;&lt;/p&gt;&lt;hr size=&quot;1&quot;&gt;&lt;p style=&quot;margin:0px;margin-left:4px;&quot;&gt;+ getExpression(): String&lt;/p&gt;&lt;p style=&quot;margin:0px;margin-left:4px;&quot;&gt;+ setAnswer(String): void&lt;/p&gt;&lt;p style=&quot;margin:0px;margin-left:4px;&quot;&gt;+ addCalcObserver(Runnable): void&lt;/p&gt;&lt;p style=&quot;margin:0px;margin-left:4px;&quot;&gt;+ addTypeObserver(Consumer&amp;lt;OpType&amp;gt;): void&lt;/p&gt;" style="verticalAlign=top;align=left;overflow=fill;fontSize=12;fontFamily=Helvetica;html=1;whiteSpace=wrap;" parent="o-XdoUrNxBxSu6kzfxyW-15" vertex="1">
          <mxGeometry x="160" y="30" width="270" height="115" as="geometry" />
        </mxCell>
        <mxCell id="o-XdoUrNxBxSu6kzfxyW-23" style="edgeStyle=orthogonalEdgeStyle;rounded=0;orthogonalLoop=1;jettySize=auto;html=1;endArrow=none;endFill=0;exitX=0.75;exitY=1;exitDx=0;exitDy=0;startArrow=block;startFill=0;" parent="o-XdoUrNxBxSu6kzfxyW-15" source="o-XdoUrNxBxSu6kzfxyW-14" target="o-XdoUrNxBxSu6kzfxyW-16" edge="1">
          <mxGeometry relative="1" as="geometry">
            <mxPoint x="360" y="150" as="sourcePoint" />
          </mxGeometry>
        </mxCell>
        <mxCell id="o-XdoUrNxBxSu6kzfxyW-16" value="&lt;p style=&quot;margin:0px;margin-top:4px;text-align:center;&quot;&gt;&lt;i&gt;&amp;lt;&amp;lt;view&amp;gt;&amp;gt;&lt;/i&gt;&lt;/p&gt;&lt;p style=&quot;margin:0px;margin-top:4px;text-align:center;&quot;&gt;&lt;i&gt;&lt;b&gt;cs2800:GuiView&lt;/b&gt;&lt;/i&gt;&lt;br&gt;&lt;/p&gt;&lt;hr&gt;&lt;p style=&quot;margin:0px;margin-left:4px;&quot;&gt;&lt;span style=&quot;background-color: initial;&quot;&gt;- expression: String&lt;/span&gt;&lt;br&gt;&lt;/p&gt;&lt;p style=&quot;margin:0px;margin-left:4px;&quot;&gt;- answer: String&lt;/p&gt;" style="verticalAlign=top;align=left;overflow=fill;fontSize=12;fontFamily=Helvetica;html=1;whiteSpace=wrap;" parent="o-XdoUrNxBxSu6kzfxyW-15" vertex="1">
          <mxGeometry x="340" y="196.25" width="190" height="92.5" as="geometry" />
        </mxCell>
        <mxCell id="o-XdoUrNxBxSu6kzfxyW-22" style="edgeStyle=orthogonalEdgeStyle;rounded=0;orthogonalLoop=1;jettySize=auto;html=1;startArrow=none;startFill=0;endArrow=block;endFill=0;" parent="o-XdoUrNxBxSu6kzfxyW-15" source="o-XdoUrNxBxSu6kzfxyW-17" target="o-XdoUrNxBxSu6kzfxyW-14" edge="1">
          <mxGeometry relative="1" as="geometry">
            <mxPoint x="260" y="150" as="targetPoint" />
          </mxGeometry>
        </mxCell>
        <mxCell id="o-XdoUrNxBxSu6kzfxyW-17" value="&lt;p style=&quot;margin:0px;margin-top:4px;text-align:center;&quot;&gt;&lt;i&gt;&amp;lt;&amp;lt;view&amp;gt;&amp;gt;&lt;/i&gt;&lt;/p&gt;&lt;p style=&quot;margin:0px;margin-top:4px;text-align:center;&quot;&gt;&lt;i&gt;&lt;b&gt;cs2800:AsciiView&lt;/b&gt;&lt;/i&gt;&lt;br&gt;&lt;/p&gt;&lt;hr&gt;&lt;p style=&quot;margin:0px;margin-left:4px;&quot;&gt;&lt;/p&gt;&lt;p style=&quot;margin:0px;margin-left:4px;&quot;&gt;- expression: String&lt;/p&gt;&lt;p style=&quot;margin:0px;margin-left:4px;&quot;&gt;- answer: String&lt;br&gt;&lt;/p&gt;&lt;hr&gt;+ menu(): void" style="verticalAlign=top;align=left;overflow=fill;fontSize=12;fontFamily=Helvetica;html=1;whiteSpace=wrap;" parent="o-XdoUrNxBxSu6kzfxyW-15" vertex="1">
          <mxGeometry x="90" y="185" width="190" height="115" as="geometry" />
        </mxCell>
        <mxCell id="o-XdoUrNxBxSu6kzfxyW-20" style="edgeStyle=orthogonalEdgeStyle;rounded=0;orthogonalLoop=1;jettySize=auto;html=1;entryX=0.098;entryY=0.005;entryDx=0;entryDy=0;entryPerimeter=0;" parent="o-XdoUrNxBxSu6kzfxyW-15" source="o-XdoUrNxBxSu6kzfxyW-18" target="o-XdoUrNxBxSu6kzfxyW-17" edge="1">
          <mxGeometry relative="1" as="geometry">
            <mxPoint x="90" y="160" as="targetPoint" />
          </mxGeometry>
        </mxCell>
        <mxCell id="o-XdoUrNxBxSu6kzfxyW-18" value="&lt;span style=&quot;font-size: 10px;&quot;&gt;A menu based view&lt;/span&gt;" style="verticalLabelPosition=middle;verticalAlign=middle;html=1;shape=mxgraph.basic.corner_round_rect;dx=6;whiteSpace=wrap;movableLabel=1;labelPosition=center;align=left;fillColor=#fff2cc;strokeColor=#d6b656;" parent="o-XdoUrNxBxSu6kzfxyW-15" vertex="1">
          <mxGeometry x="50" y="90" width="80" height="37.5" as="geometry">
            <mxPoint x="7" y="2" as="offset" />
          </mxGeometry>
        </mxCell>
        <mxCell id="o-XdoUrNxBxSu6kzfxyW-21" style="edgeStyle=orthogonalEdgeStyle;rounded=0;orthogonalLoop=1;jettySize=auto;html=1;exitX=0.5;exitY=1;exitDx=0;exitDy=0;exitPerimeter=0;entryX=0.75;entryY=0;entryDx=0;entryDy=0;" parent="o-XdoUrNxBxSu6kzfxyW-15" source="o-XdoUrNxBxSu6kzfxyW-19" target="o-XdoUrNxBxSu6kzfxyW-16" edge="1">
          <mxGeometry relative="1" as="geometry" />
        </mxCell>
        <mxCell id="o-XdoUrNxBxSu6kzfxyW-19" value="&lt;span style=&quot;font-size: 10px;&quot;&gt;A graphical window with:&lt;/span&gt;&lt;br&gt;&lt;span style=&quot;font-size: 10px;&quot;&gt;* An text expression field&lt;br&gt;a calculate button&lt;br&gt;a &quot;type&quot; radio button&lt;br&gt;&lt;/span&gt;" style="verticalLabelPosition=middle;verticalAlign=middle;html=1;shape=mxgraph.basic.corner_round_rect;dx=6;whiteSpace=wrap;movableLabel=1;labelPosition=center;align=left;fillColor=#fff2cc;strokeColor=#d6b656;" parent="o-XdoUrNxBxSu6kzfxyW-15" vertex="1">
          <mxGeometry x="450" y="52.5" width="130" height="87.5" as="geometry">
            <mxPoint x="6" y="1" as="offset" />
          </mxGeometry>
        </mxCell>
        <mxCell id="o-XdoUrNxBxSu6kzfxyW-25" style="rounded=0;orthogonalLoop=1;jettySize=auto;html=1;entryX=0.617;entryY=0.99;entryDx=0;entryDy=0;entryPerimeter=0;" parent="WIyWlLk6GJQsqaUBKTNV-1" source="o-XdoUrNxBxSu6kzfxyW-0" target="o-XdoUrNxBxSu6kzfxyW-17" edge="1">
          <mxGeometry relative="1" as="geometry" />
        </mxCell>
        <mxCell id="R3X1Znr5XBpOc86eTdo5-1" value="observer" style="edgeLabel;html=1;align=center;verticalAlign=middle;resizable=0;points=[];" parent="o-XdoUrNxBxSu6kzfxyW-25" vertex="1" connectable="0">
          <mxGeometry x="-0.0056" y="2" relative="1" as="geometry">
            <mxPoint as="offset" />
          </mxGeometry>
        </mxCell>
        <mxCell id="o-XdoUrNxBxSu6kzfxyW-26" style="rounded=0;orthogonalLoop=1;jettySize=auto;html=1;entryX=0.5;entryY=1;entryDx=0;entryDy=0;" parent="WIyWlLk6GJQsqaUBKTNV-1" source="o-XdoUrNxBxSu6kzfxyW-0" target="o-XdoUrNxBxSu6kzfxyW-16" edge="1">
          <mxGeometry relative="1" as="geometry" />
        </mxCell>
        <mxCell id="R3X1Znr5XBpOc86eTdo5-0" value="observer" style="edgeLabel;html=1;align=center;verticalAlign=middle;resizable=0;points=[];" parent="o-XdoUrNxBxSu6kzfxyW-26" vertex="1" connectable="0">
          <mxGeometry x="0.0726" y="-2" relative="1" as="geometry">
            <mxPoint as="offset" />
          </mxGeometry>
        </mxCell>
        <mxCell id="R3X1Znr5XBpOc86eTdo5-2" value="&lt;font style=&quot;font-size: 20px;&quot;&gt;Model Assembly&lt;/font&gt;" style="swimlane;whiteSpace=wrap;html=1;startSize=30;rounded=1;swimlaneFillColor=#99FFFF;fillColor=#99FFFF;" parent="WIyWlLk6GJQsqaUBKTNV-1" vertex="1">
          <mxGeometry x="400" y="25" width="710" height="1010" as="geometry" />
        </mxCell>
        <mxCell id="R3X1Znr5XBpOc86eTdo5-3" value="&lt;p style=&quot;margin:0px;margin-top:4px;text-align:center;&quot;&gt;&lt;i&gt;&amp;lt;&amp;lt;model&amp;gt;&amp;gt;&lt;/i&gt;&lt;/p&gt;&lt;p style=&quot;margin:0px;margin-top:4px;text-align:center;&quot;&gt;&lt;i&gt;&lt;b&gt;cs2800:CalcModel&lt;/b&gt;&lt;/i&gt;&lt;br&gt;&lt;/p&gt;&lt;hr&gt;&lt;p style=&quot;margin:0px;margin-left:4px;&quot;&gt;- revPolish: Calculator&lt;br&gt;&lt;/p&gt;&lt;p style=&quot;margin:0px;margin-left:4px;&quot;&gt;- standard: Calculator&lt;/p&gt;&lt;hr&gt;&lt;p style=&quot;margin:0px;margin-left:4px;&quot;&gt;+ evaluate(expr:String, infix: Boolean): float&lt;/p&gt;" style="verticalAlign=top;align=left;overflow=fill;fontSize=12;fontFamily=Helvetica;html=1;whiteSpace=wrap;" parent="R3X1Znr5XBpOc86eTdo5-2" vertex="1">
          <mxGeometry x="230" y="50" width="250" height="114" as="geometry" />
        </mxCell>
        <mxCell id="R3X1Znr5XBpOc86eTdo5-4" value="&lt;p style=&quot;margin:0px;margin-top:4px;text-align:center;&quot;&gt;&lt;b&gt;cs2800:RevPolishCalc&lt;/b&gt;&lt;/p&gt;&lt;hr size=&quot;1&quot;&gt;&lt;p style=&quot;margin:0px;margin-left:4px;&quot;&gt;&lt;/p&gt;&lt;p style=&quot;margin:0px;margin-left:4px;&quot;&gt;- numStack: Stack&lt;/p&gt;&lt;hr&gt;&lt;p style=&quot;margin:0px;margin-left:4px;&quot;&gt;+ evaluate(expr:String)&lt;/p&gt;&lt;p style=&quot;margin:0px;margin-left:4px;&quot;&gt;&amp;nbsp; &amp;nbsp;throws InvalidExpression&lt;/p&gt;" style="verticalAlign=top;align=left;overflow=fill;fontSize=12;fontFamily=Helvetica;html=1;whiteSpace=wrap;" parent="R3X1Znr5XBpOc86eTdo5-2" vertex="1">
          <mxGeometry x="36" y="200" width="160" height="90" as="geometry" />
        </mxCell>
        <mxCell id="R3X1Znr5XBpOc86eTdo5-17" style="edgeStyle=orthogonalEdgeStyle;rounded=0;orthogonalLoop=1;jettySize=auto;html=1;entryX=1;entryY=0.75;entryDx=0;entryDy=0;strokeColor=none;" parent="R3X1Znr5XBpOc86eTdo5-2" source="R3X1Znr5XBpOc86eTdo5-5" target="R3X1Znr5XBpOc86eTdo5-3" edge="1">
          <mxGeometry relative="1" as="geometry" />
        </mxCell>
        <mxCell id="R3X1Znr5XBpOc86eTdo5-5" value="&lt;p style=&quot;margin:0px;margin-top:4px;text-align:center;&quot;&gt;&lt;b&gt;cs2800:StandardCalc&lt;/b&gt;&lt;/p&gt;&lt;hr size=&quot;1&quot;&gt;&lt;p style=&quot;margin:0px;margin-left:4px;&quot;&gt;- values: OpStack&lt;/p&gt;&lt;p style=&quot;margin:0px;margin-left:4px;&quot;&gt;- rpCalc: RevPolishCalc&lt;/p&gt;&lt;hr size=&quot;1&quot;&gt;&lt;p style=&quot;border-color: var(--border-color); margin: 0px 0px 0px 4px;&quot;&gt;+ evaluate(expr:String)&lt;/p&gt;&lt;p style=&quot;border-color: var(--border-color); margin: 0px 0px 0px 4px;&quot;&gt;&amp;nbsp; &amp;nbsp;throws InvalidExpression&lt;/p&gt;" style="verticalAlign=top;align=left;overflow=fill;fontSize=12;fontFamily=Helvetica;html=1;whiteSpace=wrap;" parent="R3X1Znr5XBpOc86eTdo5-2" vertex="1">
          <mxGeometry x="456" y="200" width="160" height="110" as="geometry" />
        </mxCell>
        <mxCell id="R3X1Znr5XBpOc86eTdo5-6" value="&lt;p style=&quot;margin:0px;margin-top:4px;text-align:center;&quot;&gt;&lt;i&gt;&amp;lt;&amp;lt;Interface&amp;gt;&amp;gt;&lt;/i&gt;&lt;br&gt;&lt;b&gt;cs2800:Calculator&lt;/b&gt;&lt;/p&gt;&lt;hr&gt;&lt;p style=&quot;margin:0px;margin-left:4px;&quot;&gt;+ evaluate(expr:String): float&lt;br&gt;&amp;nbsp; &amp;nbsp;throws InvalidExpression&amp;nbsp;&lt;/p&gt;" style="verticalAlign=top;align=left;overflow=fill;fontSize=12;fontFamily=Helvetica;html=1;whiteSpace=wrap;" parent="R3X1Znr5XBpOc86eTdo5-2" vertex="1">
          <mxGeometry x="245" y="230" width="190" height="80" as="geometry" />
        </mxCell>
        <mxCell id="R3X1Znr5XBpOc86eTdo5-7" value="&lt;p style=&quot;margin:0px;margin-top:4px;text-align:center;&quot;&gt;&lt;b&gt;cs2800:NumStack&lt;/b&gt;&lt;/p&gt;&lt;hr size=&quot;1&quot;&gt;&lt;p style=&quot;margin:0px;margin-left:4px;&quot;&gt;&lt;/p&gt;&lt;p style=&quot;margin:0px;margin-left:4px;&quot;&gt;- numStack: Stack&lt;/p&gt;&lt;hr&gt;&lt;p style=&quot;margin:0px;margin-left:4px;&quot;&gt;+ push(float):void&lt;/p&gt;&lt;p style=&quot;margin:0px;margin-left:4px;&quot;&gt;+ pop(): float&amp;nbsp;&lt;/p&gt;&lt;p style=&quot;margin:0px;margin-left:4px;&quot;&gt;&amp;nbsp; &amp;nbsp;throws EmptyStack&lt;/p&gt;&lt;p style=&quot;margin:0px;margin-left:4px;&quot;&gt;+ top(): float&lt;/p&gt;&lt;p style=&quot;border-color: var(--border-color); margin: 0px 0px 0px 4px;&quot;&gt;&amp;nbsp; &amp;nbsp;throws EmptyStack&lt;/p&gt;&lt;p style=&quot;margin:0px;margin-left:4px;&quot;&gt;+size():int&lt;/p&gt;" style="verticalAlign=top;align=left;overflow=fill;fontSize=12;fontFamily=Helvetica;html=1;whiteSpace=wrap;" parent="R3X1Znr5XBpOc86eTdo5-2" vertex="1">
          <mxGeometry x="36" y="330" width="160" height="150" as="geometry" />
        </mxCell>
        <mxCell id="R3X1Znr5XBpOc86eTdo5-13" value="&lt;p style=&quot;margin:0px;margin-top:4px;text-align:center;&quot;&gt;&lt;i&gt;&amp;lt;&amp;lt;enumeration&amp;gt;&amp;gt;&lt;/i&gt;&lt;br&gt;&lt;b&gt;cs2800:Symbol&lt;/b&gt;&lt;/p&gt;&lt;hr size=&quot;1&quot;&gt;&lt;p style=&quot;margin:0px;margin-left:4px;&quot;&gt;&lt;u&gt;LEFT_BRACKET&lt;/u&gt;&lt;/p&gt;&lt;p style=&quot;margin:0px;margin-left:4px;&quot;&gt;&lt;u&gt;RIGHT_BRACKET&lt;/u&gt;&lt;/p&gt;&lt;p style=&quot;margin:0px;margin-left:4px;&quot;&gt;&lt;u&gt;TIME&lt;/u&gt;&lt;/p&gt;&lt;p style=&quot;margin:0px;margin-left:4px;&quot;&gt;&lt;u&gt;DIVIDE&lt;/u&gt;&lt;/p&gt;&lt;p style=&quot;margin:0px;margin-left:4px;&quot;&gt;&lt;u&gt;PLUS&lt;/u&gt;&lt;/p&gt;&lt;p style=&quot;margin:0px;margin-left:4px;&quot;&gt;&lt;u&gt;MINUS&lt;/u&gt;&lt;/p&gt;&lt;p style=&quot;margin:0px;margin-left:4px;&quot;&gt;&lt;u&gt;INVALID&lt;/u&gt;&lt;/p&gt;" style="verticalAlign=top;align=left;overflow=fill;fontSize=12;fontFamily=Helvetica;html=1;whiteSpace=wrap;" parent="R3X1Znr5XBpOc86eTdo5-2" vertex="1">
          <mxGeometry x="480" y="610" width="190" height="150" as="geometry" />
        </mxCell>
        <mxCell id="R3X1Znr5XBpOc86eTdo5-14" value="&lt;p style=&quot;margin:0px;margin-top:4px;text-align:center;&quot;&gt;&lt;i&gt;&amp;lt;&amp;lt;enumeration&amp;gt;&amp;gt;&lt;/i&gt;&lt;br&gt;&lt;b&gt;cs2800:Type&lt;/b&gt;&lt;/p&gt;&lt;hr size=&quot;1&quot;&gt;&lt;p style=&quot;margin:0px;margin-left:4px;&quot;&gt;&lt;u&gt;STRING&lt;/u&gt;&lt;/p&gt;&lt;p style=&quot;margin:0px;margin-left:4px;&quot;&gt;&lt;u&gt;NUMBER&lt;/u&gt;&lt;/p&gt;&lt;p style=&quot;margin:0px;margin-left:4px;&quot;&gt;&lt;u&gt;SYMBOL&lt;/u&gt;&lt;/p&gt;&lt;p style=&quot;margin:0px;margin-left:4px;&quot;&gt;&lt;u&gt;INVALID&lt;/u&gt;&lt;/p&gt;" style="verticalAlign=top;align=left;overflow=fill;fontSize=12;fontFamily=Helvetica;html=1;whiteSpace=wrap;" parent="R3X1Znr5XBpOc86eTdo5-2" vertex="1">
          <mxGeometry x="480" y="805" width="190" height="105" as="geometry" />
        </mxCell>
        <mxCell id="R3X1Znr5XBpOc86eTdo5-20" style="edgeStyle=orthogonalEdgeStyle;rounded=0;orthogonalLoop=1;jettySize=auto;html=1;entryX=0.5;entryY=0;entryDx=0;entryDy=0;" parent="R3X1Znr5XBpOc86eTdo5-2" source="R3X1Znr5XBpOc86eTdo5-19" target="R3X1Znr5XBpOc86eTdo5-4" edge="1">
          <mxGeometry relative="1" as="geometry" />
        </mxCell>
        <mxCell id="R3X1Znr5XBpOc86eTdo5-19" value="&lt;font style=&quot;font-size: 10px;&quot;&gt;Evaluates a String as a reverse Polish expression&lt;br&gt;&lt;/font&gt;" style="verticalLabelPosition=middle;verticalAlign=middle;html=1;shape=mxgraph.basic.corner_round_rect;dx=6;whiteSpace=wrap;movableLabel=1;labelPosition=center;align=left;fillColor=#fff2cc;strokeColor=#d6b656;" parent="R3X1Znr5XBpOc86eTdo5-2" vertex="1">
          <mxGeometry x="50" y="114" width="140" height="50" as="geometry">
            <mxPoint x="12" y="2" as="offset" />
          </mxGeometry>
        </mxCell>
        <mxCell id="R3X1Znr5XBpOc86eTdo5-21" value="&lt;font style=&quot;font-size: 10px;&quot;&gt;Evaluates a String as&lt;br&gt;an infix expression&lt;br&gt;&lt;/font&gt;" style="verticalLabelPosition=middle;verticalAlign=middle;html=1;shape=mxgraph.basic.corner_round_rect;dx=6;whiteSpace=wrap;movableLabel=1;labelPosition=center;align=left;fillColor=#fff2cc;strokeColor=#d6b656;" parent="R3X1Znr5XBpOc86eTdo5-2" vertex="1">
          <mxGeometry x="496" y="114" width="120" height="36" as="geometry">
            <mxPoint x="3" y="2" as="offset" />
          </mxGeometry>
        </mxCell>
        <mxCell id="R3X1Znr5XBpOc86eTdo5-22" style="edgeStyle=orthogonalEdgeStyle;rounded=0;orthogonalLoop=1;jettySize=auto;html=1;" parent="R3X1Znr5XBpOc86eTdo5-2" source="R3X1Znr5XBpOc86eTdo5-21" edge="1">
          <mxGeometry relative="1" as="geometry">
            <mxPoint x="560" y="200" as="targetPoint" />
          </mxGeometry>
        </mxCell>
        <mxCell id="R3X1Znr5XBpOc86eTdo5-24" style="edgeStyle=orthogonalEdgeStyle;rounded=0;orthogonalLoop=1;jettySize=auto;html=1;" parent="R3X1Znr5XBpOc86eTdo5-2" source="R3X1Znr5XBpOc86eTdo5-23" target="R3X1Znr5XBpOc86eTdo5-6" edge="1">
          <mxGeometry relative="1" as="geometry" />
        </mxCell>
        <mxCell id="R3X1Znr5XBpOc86eTdo5-23" value="&lt;font style=&quot;font-size: 10px;&quot;&gt;Allows calculation of String Expressions&lt;br&gt;&lt;/font&gt;" style="verticalLabelPosition=middle;verticalAlign=middle;html=1;shape=mxgraph.basic.corner_round_rect;dx=6;whiteSpace=wrap;movableLabel=1;labelPosition=center;align=left;fillColor=#fff2cc;strokeColor=#d6b656;" parent="R3X1Znr5XBpOc86eTdo5-2" vertex="1">
          <mxGeometry x="240" y="170" width="200" height="30" as="geometry">
            <mxPoint x="12" y="2" as="offset" />
          </mxGeometry>
        </mxCell>
        <mxCell id="R3X1Znr5XBpOc86eTdo5-26" value="&lt;p style=&quot;margin:0px;margin-top:4px;text-align:center;&quot;&gt;&lt;b&gt;cs2800:OpStack&lt;/b&gt;&lt;/p&gt;&lt;hr size=&quot;1&quot;&gt;&lt;p style=&quot;margin:0px;margin-left:4px;&quot;&gt;&lt;/p&gt;&lt;p style=&quot;margin:0px;margin-left:4px;&quot;&gt;- opStack: Stack&lt;/p&gt;&lt;hr&gt;&lt;p style=&quot;margin:0px;margin-left:4px;&quot;&gt;+ push(Symbol):void&lt;/p&gt;&lt;p style=&quot;margin:0px;margin-left:4px;&quot;&gt;+ pop(): Symbol&amp;nbsp;&lt;/p&gt;&lt;p style=&quot;margin:0px;margin-left:4px;&quot;&gt;&amp;nbsp; &amp;nbsp;throws EmptyStack&lt;/p&gt;&lt;p style=&quot;margin:0px;margin-left:4px;&quot;&gt;+ top(): Symbol&lt;/p&gt;&lt;p style=&quot;border-color: var(--border-color); margin: 0px 0px 0px 4px;&quot;&gt;&amp;nbsp; &amp;nbsp;throws EmptyStack&lt;/p&gt;&lt;p style=&quot;margin:0px;margin-left:4px;&quot;&gt;+size():int&lt;/p&gt;" style="verticalAlign=top;align=left;overflow=fill;fontSize=12;fontFamily=Helvetica;html=1;whiteSpace=wrap;" parent="R3X1Znr5XBpOc86eTdo5-2" vertex="1">
          <mxGeometry x="250" y="330" width="160" height="150" as="geometry" />
        </mxCell>
        <mxCell id="R3X1Znr5XBpOc86eTdo5-25" value="&lt;p style=&quot;margin:0px;margin-top:4px;text-align:center;&quot;&gt;&lt;b&gt;cs2800:StrStack&lt;/b&gt;&lt;/p&gt;&lt;hr size=&quot;1&quot;&gt;&lt;p style=&quot;margin:0px;margin-left:4px;&quot;&gt;&lt;/p&gt;&lt;p style=&quot;margin:0px;margin-left:4px;&quot;&gt;- numStack: Stack&lt;/p&gt;&lt;hr&gt;&lt;p style=&quot;margin:0px;margin-left:4px;&quot;&gt;+ push(String):void&lt;/p&gt;&lt;p style=&quot;margin:0px;margin-left:4px;&quot;&gt;+ pop(): String&amp;nbsp;&lt;/p&gt;&lt;p style=&quot;margin:0px;margin-left:4px;&quot;&gt;&amp;nbsp; &amp;nbsp;throws EmptyStack&lt;/p&gt;&lt;p style=&quot;margin:0px;margin-left:4px;&quot;&gt;+ top(): String&lt;/p&gt;&lt;p style=&quot;border-color: var(--border-color); margin: 0px 0px 0px 4px;&quot;&gt;&amp;nbsp; &amp;nbsp;throws EmptyStack&lt;/p&gt;&lt;p style=&quot;margin:0px;margin-left:4px;&quot;&gt;+size():int&lt;/p&gt;" style="verticalAlign=top;align=left;overflow=fill;fontSize=12;fontFamily=Helvetica;html=1;whiteSpace=wrap;" parent="R3X1Znr5XBpOc86eTdo5-2" vertex="1">
          <mxGeometry x="456" y="330" width="160" height="150" as="geometry" />
        </mxCell>
        <mxCell id="R3X1Znr5XBpOc86eTdo5-27" value="&lt;p style=&quot;margin:0px;margin-top:4px;text-align:center;&quot;&gt;&lt;b&gt;cs2800:Stack&lt;/b&gt;&lt;/p&gt;&lt;hr size=&quot;1&quot;&gt;&lt;p style=&quot;margin:0px;margin-left:4px;&quot;&gt;&lt;/p&gt;&lt;p style=&quot;margin:0px;margin-left:4px;&quot;&gt;- entries: List&amp;lt;Entry&amp;gt;&lt;/p&gt;&lt;p style=&quot;margin:0px;margin-left:4px;&quot;&gt;- size: int&lt;/p&gt;&lt;hr&gt;&lt;p style=&quot;margin:0px;margin-left:4px;&quot;&gt;+ push(Entry):void&lt;/p&gt;&lt;p style=&quot;margin:0px;margin-left:4px;&quot;&gt;+ pop(): Entry&amp;nbsp;&lt;/p&gt;&lt;p style=&quot;margin:0px;margin-left:4px;&quot;&gt;&amp;nbsp; &amp;nbsp;throws EmptyStack&lt;/p&gt;&lt;p style=&quot;margin:0px;margin-left:4px;&quot;&gt;+ top(): Entry&lt;/p&gt;&lt;p style=&quot;border-color: var(--border-color); margin: 0px 0px 0px 4px;&quot;&gt;&amp;nbsp; &amp;nbsp;throws EmptyStack&lt;/p&gt;&lt;p style=&quot;margin:0px;margin-left:4px;&quot;&gt;+size():int&lt;/p&gt;" style="verticalAlign=top;align=left;overflow=fill;fontSize=12;fontFamily=Helvetica;html=1;whiteSpace=wrap;" parent="R3X1Znr5XBpOc86eTdo5-2" vertex="1">
          <mxGeometry x="270" y="545" width="160" height="170" as="geometry" />
        </mxCell>
        <mxCell id="R3X1Znr5XBpOc86eTdo5-28" value="" style="endArrow=diamondThin;endFill=1;endSize=24;html=1;rounded=0;exitX=0;exitY=0.25;exitDx=0;exitDy=0;entryX=0.5;entryY=1;entryDx=0;entryDy=0;" parent="R3X1Znr5XBpOc86eTdo5-2" source="R3X1Znr5XBpOc86eTdo5-27" target="R3X1Znr5XBpOc86eTdo5-7" edge="1">
          <mxGeometry width="160" relative="1" as="geometry">
            <mxPoint x="200" y="280" as="sourcePoint" />
            <mxPoint x="360" y="280" as="targetPoint" />
          </mxGeometry>
        </mxCell>
        <mxCell id="R3X1Znr5XBpOc86eTdo5-36" value="facade" style="edgeLabel;html=1;align=center;verticalAlign=middle;resizable=0;points=[];" parent="R3X1Znr5XBpOc86eTdo5-28" vertex="1" connectable="0">
          <mxGeometry x="0.1326" y="3" relative="1" as="geometry">
            <mxPoint as="offset" />
          </mxGeometry>
        </mxCell>
        <mxCell id="R3X1Znr5XBpOc86eTdo5-29" value="" style="endArrow=diamondThin;endFill=1;endSize=24;html=1;rounded=0;exitX=0.816;exitY=-0.031;exitDx=0;exitDy=0;exitPerimeter=0;entryX=0.04;entryY=0.965;entryDx=0;entryDy=0;entryPerimeter=0;" parent="R3X1Znr5XBpOc86eTdo5-2" source="R3X1Znr5XBpOc86eTdo5-4" target="R3X1Znr5XBpOc86eTdo5-3" edge="1">
          <mxGeometry width="160" relative="1" as="geometry">
            <mxPoint x="200" y="280" as="sourcePoint" />
            <mxPoint x="360" y="280" as="targetPoint" />
          </mxGeometry>
        </mxCell>
        <mxCell id="R3X1Znr5XBpOc86eTdo5-30" value="" style="endArrow=diamondThin;endFill=1;endSize=24;html=1;rounded=0;entryX=0.95;entryY=0.996;entryDx=0;entryDy=0;entryPerimeter=0;exitX=0.316;exitY=-0.018;exitDx=0;exitDy=0;exitPerimeter=0;" parent="R3X1Znr5XBpOc86eTdo5-2" source="R3X1Znr5XBpOc86eTdo5-5" target="R3X1Znr5XBpOc86eTdo5-3" edge="1">
          <mxGeometry width="160" relative="1" as="geometry">
            <mxPoint x="200" y="280" as="sourcePoint" />
            <mxPoint x="360" y="280" as="targetPoint" />
          </mxGeometry>
        </mxCell>
        <mxCell id="R3X1Znr5XBpOc86eTdo5-31" value="" style="endArrow=diamondThin;endFill=1;endSize=24;html=1;rounded=0;exitX=0.616;exitY=0.005;exitDx=0;exitDy=0;exitPerimeter=0;entryX=0.75;entryY=1;entryDx=0;entryDy=0;" parent="R3X1Znr5XBpOc86eTdo5-2" source="R3X1Znr5XBpOc86eTdo5-27" target="R3X1Znr5XBpOc86eTdo5-26" edge="1">
          <mxGeometry width="160" relative="1" as="geometry">
            <mxPoint x="200" y="280" as="sourcePoint" />
            <mxPoint x="360" y="280" as="targetPoint" />
          </mxGeometry>
        </mxCell>
        <mxCell id="R3X1Znr5XBpOc86eTdo5-35" value="facade" style="edgeLabel;html=1;align=center;verticalAlign=middle;resizable=0;points=[];" parent="R3X1Znr5XBpOc86eTdo5-31" vertex="1" connectable="0">
          <mxGeometry x="-0.0293" y="1" relative="1" as="geometry">
            <mxPoint as="offset" />
          </mxGeometry>
        </mxCell>
        <mxCell id="R3X1Znr5XBpOc86eTdo5-32" value="" style="endArrow=diamondThin;endFill=1;endSize=24;html=1;rounded=0;exitX=1;exitY=0.25;exitDx=0;exitDy=0;entryX=0.566;entryY=0.997;entryDx=0;entryDy=0;entryPerimeter=0;" parent="R3X1Znr5XBpOc86eTdo5-2" source="R3X1Znr5XBpOc86eTdo5-27" target="R3X1Znr5XBpOc86eTdo5-25" edge="1">
          <mxGeometry width="160" relative="1" as="geometry">
            <mxPoint x="200" y="280" as="sourcePoint" />
            <mxPoint x="360" y="280" as="targetPoint" />
          </mxGeometry>
        </mxCell>
        <mxCell id="R3X1Znr5XBpOc86eTdo5-34" value="facade" style="edgeLabel;html=1;align=center;verticalAlign=middle;resizable=0;points=[];" parent="R3X1Znr5XBpOc86eTdo5-32" vertex="1" connectable="0">
          <mxGeometry x="-0.0319" y="-2" relative="1" as="geometry">
            <mxPoint as="offset" />
          </mxGeometry>
        </mxCell>
        <mxCell id="R3X1Znr5XBpOc86eTdo5-37" value="&lt;p style=&quot;margin:0px;margin-top:4px;text-align:center;&quot;&gt;&lt;b&gt;cs2800:Entry&lt;/b&gt;&lt;/p&gt;&lt;hr&gt;&lt;p style=&quot;margin:0px;margin-left:4px;&quot;&gt;-number: float&lt;/p&gt;&lt;p style=&quot;margin:0px;margin-left:4px;&quot;&gt;-other: Symbol&lt;/p&gt;&lt;p style=&quot;margin:0px;margin-left:4px;&quot;&gt;-str: String&lt;/p&gt;&lt;p style=&quot;margin:0px;margin-left:4px;&quot;&gt;-type: Type&lt;/p&gt;&lt;hr&gt;&lt;p style=&quot;margin:0px;margin-left:4px;&quot;&gt;&lt;span style=&quot;background-color: initial;&quot;&gt;+Entry(float value)&lt;/span&gt;&lt;br&gt;&lt;/p&gt;&lt;p style=&quot;margin:0px;margin-left:4px;&quot;&gt;+Entry(Symbol which)&lt;/p&gt;&lt;p style=&quot;margin:0px;margin-left:4px;&quot;&gt;+Entry(String)&lt;/p&gt;&lt;p style=&quot;margin:0px;margin-left:4px;&quot;&gt;+getType(): Type&lt;/p&gt;&lt;p style=&quot;margin:0px;margin-left:4px;&quot;&gt;+getString(): String&amp;nbsp;&lt;/p&gt;&lt;p style=&quot;margin:0px;margin-left:4px;&quot;&gt;&amp;nbsp; throws BadType&lt;/p&gt;&lt;p style=&quot;margin:0px;margin-left:4px;&quot;&gt;+getSymbol(): Symbol&amp;nbsp;&lt;/p&gt;&lt;p style=&quot;margin:0px;margin-left:4px;&quot;&gt;&amp;nbsp; throws BadType&lt;/p&gt;&lt;p style=&quot;margin:0px;margin-left:4px;&quot;&gt;&lt;span style=&quot;background-color: initial;&quot;&gt;+getValue(): float&lt;/span&gt;&lt;br&gt;&lt;/p&gt;&lt;p style=&quot;margin:0px;margin-left:4px;&quot;&gt;&amp;nbsp; throws BadType&lt;/p&gt;" style="verticalAlign=top;align=left;overflow=fill;fontSize=12;fontFamily=Helvetica;html=1;whiteSpace=wrap;" parent="R3X1Znr5XBpOc86eTdo5-2" vertex="1">
          <mxGeometry x="260" y="750" width="160" height="250" as="geometry" />
        </mxCell>
        <mxCell id="R3X1Znr5XBpOc86eTdo5-38" value="" style="endArrow=diamondThin;endFill=1;endSize=24;html=1;rounded=0;exitX=0.444;exitY=-0.027;exitDx=0;exitDy=0;exitPerimeter=0;entryX=0.5;entryY=1;entryDx=0;entryDy=0;" parent="R3X1Znr5XBpOc86eTdo5-2" source="R3X1Znr5XBpOc86eTdo5-37" target="R3X1Znr5XBpOc86eTdo5-27" edge="1">
          <mxGeometry width="160" relative="1" as="geometry">
            <mxPoint x="210" y="660" as="sourcePoint" />
            <mxPoint x="370" y="660" as="targetPoint" />
          </mxGeometry>
        </mxCell>
        <mxCell id="R3X1Znr5XBpOc86eTdo5-41" value="0..*" style="edgeLabel;html=1;align=center;verticalAlign=middle;resizable=0;points=[];" parent="R3X1Znr5XBpOc86eTdo5-38" vertex="1" connectable="0">
          <mxGeometry x="0.146" y="1" relative="1" as="geometry">
            <mxPoint as="offset" />
          </mxGeometry>
        </mxCell>
        <mxCell id="R3X1Znr5XBpOc86eTdo5-42" value="&lt;font style=&quot;font-size: 13px;&quot;&gt;0..*&lt;/font&gt;" style="edgeLabel;html=1;align=center;verticalAlign=middle;resizable=0;points=[];" parent="R3X1Znr5XBpOc86eTdo5-38" vertex="1" connectable="0">
          <mxGeometry x="0.0909" y="1" relative="1" as="geometry">
            <mxPoint as="offset" />
          </mxGeometry>
        </mxCell>
        <mxCell id="R3X1Znr5XBpOc86eTdo5-39" value="" style="endArrow=diamondThin;endFill=0;endSize=24;html=1;rounded=0;exitX=0.25;exitY=1;exitDx=0;exitDy=0;" parent="R3X1Znr5XBpOc86eTdo5-2" source="R3X1Znr5XBpOc86eTdo5-13" target="R3X1Znr5XBpOc86eTdo5-37" edge="1">
          <mxGeometry width="160" relative="1" as="geometry">
            <mxPoint x="210" y="660" as="sourcePoint" />
            <mxPoint x="370" y="660" as="targetPoint" />
          </mxGeometry>
        </mxCell>
        <mxCell id="R3X1Znr5XBpOc86eTdo5-40" value="" style="endArrow=diamondThin;endFill=0;endSize=24;html=1;rounded=0;exitX=-0.004;exitY=0.934;exitDx=0;exitDy=0;exitPerimeter=0;backgroundOutline=0;" parent="R3X1Znr5XBpOc86eTdo5-2" source="R3X1Znr5XBpOc86eTdo5-14" target="R3X1Znr5XBpOc86eTdo5-37" edge="1">
          <mxGeometry width="160" relative="1" as="geometry">
            <mxPoint x="210" y="660" as="sourcePoint" />
            <mxPoint x="370" y="660" as="targetPoint" />
          </mxGeometry>
        </mxCell>
        <mxCell id="R3X1Znr5XBpOc86eTdo5-43" value="&lt;font style=&quot;font-size: 10px;&quot;&gt;The possible values &lt;br&gt;stored in an Entry&lt;br&gt;&lt;/font&gt;" style="verticalLabelPosition=middle;verticalAlign=middle;html=1;shape=mxgraph.basic.corner_round_rect;dx=6;whiteSpace=wrap;movableLabel=1;labelPosition=center;align=left;fillColor=#fff2cc;strokeColor=#d6b656;" parent="R3X1Znr5XBpOc86eTdo5-2" vertex="1">
          <mxGeometry x="70" y="730" width="110" height="50" as="geometry">
            <mxPoint x="12" y="-1" as="offset" />
          </mxGeometry>
        </mxCell>
        <mxCell id="R3X1Znr5XBpOc86eTdo5-44" style="rounded=0;orthogonalLoop=1;jettySize=auto;html=1;entryX=-0.012;entryY=0.146;entryDx=0;entryDy=0;entryPerimeter=0;" parent="R3X1Znr5XBpOc86eTdo5-2" source="R3X1Znr5XBpOc86eTdo5-43" target="R3X1Znr5XBpOc86eTdo5-37" edge="1">
          <mxGeometry relative="1" as="geometry" />
        </mxCell>
        <mxCell id="R3X1Znr5XBpOc86eTdo5-45" style="rounded=0;orthogonalLoop=1;jettySize=auto;html=1;entryX=-0.007;entryY=0.21;entryDx=0;entryDy=0;entryPerimeter=0;" parent="R3X1Znr5XBpOc86eTdo5-2" source="R3X1Znr5XBpOc86eTdo5-43" target="R3X1Znr5XBpOc86eTdo5-37" edge="1">
          <mxGeometry relative="1" as="geometry" />
        </mxCell>
        <mxCell id="R3X1Znr5XBpOc86eTdo5-46" style="rounded=0;orthogonalLoop=1;jettySize=auto;html=1;" parent="R3X1Znr5XBpOc86eTdo5-2" source="R3X1Znr5XBpOc86eTdo5-43" edge="1">
          <mxGeometry relative="1" as="geometry">
            <mxPoint x="260" y="815" as="targetPoint" />
          </mxGeometry>
        </mxCell>
        <mxCell id="R3X1Znr5XBpOc86eTdo5-48" value="&lt;font style=&quot;font-size: 10px;&quot;&gt;The type of the &quot;active&quot; value in this Entry&lt;br&gt;&lt;/font&gt;" style="verticalLabelPosition=middle;verticalAlign=middle;html=1;shape=mxgraph.basic.corner_round_rect;dx=6;whiteSpace=wrap;movableLabel=1;labelPosition=center;align=left;fillColor=#fff2cc;strokeColor=#d6b656;" parent="R3X1Znr5XBpOc86eTdo5-2" vertex="1">
          <mxGeometry x="60" y="890" width="130" height="50" as="geometry">
            <mxPoint x="12" y="2" as="offset" />
          </mxGeometry>
        </mxCell>
        <mxCell id="R3X1Znr5XBpOc86eTdo5-49" style="rounded=0;orthogonalLoop=1;jettySize=auto;html=1;" parent="R3X1Znr5XBpOc86eTdo5-2" source="R3X1Znr5XBpOc86eTdo5-48" edge="1">
          <mxGeometry relative="1" as="geometry">
            <mxPoint x="260" y="835" as="targetPoint" />
          </mxGeometry>
        </mxCell>
        <mxCell id="R3X1Znr5XBpOc86eTdo5-50" value="&lt;font style=&quot;font-size: 10px;&quot;&gt;The non-number tokens possible in an expression&lt;br&gt;&lt;/font&gt;" style="verticalLabelPosition=middle;verticalAlign=middle;html=1;shape=mxgraph.basic.corner_round_rect;dx=6;whiteSpace=wrap;movableLabel=1;labelPosition=center;align=left;fillColor=#fff2cc;strokeColor=#d6b656;" parent="R3X1Znr5XBpOc86eTdo5-2" vertex="1">
          <mxGeometry x="513" y="521" width="140" height="50" as="geometry">
            <mxPoint x="18" y="-2" as="offset" />
          </mxGeometry>
        </mxCell>
        <mxCell id="R3X1Znr5XBpOc86eTdo5-51" style="edgeStyle=orthogonalEdgeStyle;rounded=0;orthogonalLoop=1;jettySize=auto;html=1;entryX=0.542;entryY=-0.014;entryDx=0;entryDy=0;entryPerimeter=0;" parent="R3X1Znr5XBpOc86eTdo5-2" source="R3X1Znr5XBpOc86eTdo5-50" target="R3X1Znr5XBpOc86eTdo5-13" edge="1">
          <mxGeometry relative="1" as="geometry" />
        </mxCell>
        <mxCell id="R3X1Znr5XBpOc86eTdo5-52" value="&lt;font style=&quot;font-size: 10px;&quot;&gt;The posssible &quot;types&quot; of &lt;br&gt;an Entry object&lt;br&gt;&lt;/font&gt;" style="verticalLabelPosition=middle;verticalAlign=middle;html=1;shape=mxgraph.basic.corner_round_rect;dx=6;whiteSpace=wrap;movableLabel=1;labelPosition=center;align=left;fillColor=#fff2cc;strokeColor=#d6b656;" parent="R3X1Znr5XBpOc86eTdo5-2" vertex="1">
          <mxGeometry x="486" y="943" width="140" height="50" as="geometry">
            <mxPoint x="18" y="-2" as="offset" />
          </mxGeometry>
        </mxCell>
        <mxCell id="R3X1Znr5XBpOc86eTdo5-53" style="edgeStyle=orthogonalEdgeStyle;rounded=0;orthogonalLoop=1;jettySize=auto;html=1;entryX=0.399;entryY=1.006;entryDx=0;entryDy=0;entryPerimeter=0;" parent="R3X1Znr5XBpOc86eTdo5-2" source="R3X1Znr5XBpOc86eTdo5-52" target="R3X1Znr5XBpOc86eTdo5-14" edge="1">
          <mxGeometry relative="1" as="geometry">
            <mxPoint x="570" y="930" as="targetPoint" />
          </mxGeometry>
        </mxCell>
        <mxCell id="R3X1Znr5XBpOc86eTdo5-15" style="edgeStyle=orthogonalEdgeStyle;rounded=0;orthogonalLoop=1;jettySize=auto;html=1;entryX=0.005;entryY=0.357;entryDx=0;entryDy=0;entryPerimeter=0;dashed=1;curved=1;strokeWidth=2;" parent="WIyWlLk6GJQsqaUBKTNV-1" source="o-XdoUrNxBxSu6kzfxyW-13" target="R3X1Znr5XBpOc86eTdo5-3" edge="1">
          <mxGeometry relative="1" as="geometry">
            <Array as="points">
              <mxPoint x="360" y="770" />
              <mxPoint x="360" y="116" />
            </Array>
          </mxGeometry>
        </mxCell>
      </root>
    </mxGraphModel>
  </diagram>
</mxfile>
